<svg width="800" height="566" xmlns="http://www.w3.org/2000/svg" xmlns:xlink="http://www.w3.org/1999/xlink"><defs><path id="a" d="M0 .443h785.443v124.943H0z"/><path id="c" d="M.825.44h95.667V180.6H.825z"/><path id="e" d="M0 .132h190.353v235.05H0z"/><path id="g" d="M0 .212h190.353v21.08H0z"/><path id="i" d="M0 0h49.134v91.4H0z"/><path id="k" d="M.226.302h16.688v31.84H.226z"/></defs><g fill="none" fill-rule="evenodd"><g opacity=".292"><path d="M189.502 317.096c-.725 0-1.305-48.133-1.305-107.494 0-59.385.58-107.506 1.305-107.506.72 0 1.3 48.121 1.3 107.506 0 59.361-.58 107.494-1.3 107.494m397.995 0c-.72 0-1.3-48.133-1.3-107.494 0-59.385.58-107.506 1.3-107.506.72 0 1.306 48.121 1.306 107.506 0 59.361-.586 107.494-1.306 107.494" fill="#1A2E35"/><path d="M323.498 316.096c-.72 0-1.3-61.564-1.3-137.494 0-75.953.58-137.506 1.3-137.506.725 0 1.305 61.553 1.305 137.506 0 75.93-.58 137.494-1.305 137.494m-274.996 0c-.72 0-1.305-61.564-1.305-137.494 0-75.953.585-137.506 1.305-137.506s1.3 61.553 1.3 137.506c0 75.93-.58 137.494-1.3 137.494m695.001 0c-.726 0-1.306-61.564-1.306-137.494 0-75.953.58-137.506 1.306-137.506.72 0 1.3 61.553 1.3 137.506 0 75.93-.58 137.494-1.3 137.494m-299.003 2c-.72 0-1.305-71.417-1.305-159.494 0-88.106.585-159.506 1.305-159.506s1.305 71.4 1.305 159.506c0 88.077-.585 159.494-1.305 159.494" fill="#8C8C8C"/><g transform="translate(-12 86.096)"><mask id="b" fill="#fff"><use xlink:href="#a"/></mask><path d="M785.444 52.968c.08.231-3.574.548-9.862 2.22-6.245 1.714-14.79 5.224-23.471 11.296-8.797 6.011-17.616 14.388-28.738 23.826-5.636 4.68-11.847 9.67-19.636 14.334-3.822 2.37-8.176 4.55-12.808 6.655-4.761 1.988-9.86 3.866-15.463 5.315-11.16 2.904-23.98 4.307-37.085 3.948-6.515-.191-13.223-.483-19.949-1.543-6.738-.902-13.511-2.678-19.447-5.335-5.95-2.64-11.04-6.102-15.176-9.872-4.165-3.762-7.896-7.73-11.486-11.753-7.155-8.095-14.584-16.18-22.986-24.362-8.33-8.286-16.025-17.007-24.586-25.564-8.583-8.525-18.04-16.983-29.9-24.112-6.134-3.363-12.521-6.714-19.993-8.88-3.53-1.347-7.583-1.942-11.396-2.916-1.995-.322-4.037-.548-6.053-.832l-3.036-.41c-1.017-.124-2.072-.108-3.106-.17-16.62-.885-34.07 1.248-49.103 6.531-15.068 5.364-27.22 13.372-37.514 21.913-10.35 8.586-18.722 17.93-27.01 27.123-16.346 18.51-34.352 36.147-58.183 49.368-11.945 6.477-25.564 11.79-40.482 14.1-7.365 1.318-14.982 1.59-22.377 1.53-7.425-.215-14.596-1.164-21.382-2.495-13.575-2.786-25.285-7.253-35.96-11.794-10.638-4.596-20.345-9.348-29.811-13.631-9.462-4.312-18.671-8.08-28.18-10.733-9.45-2.692-18.95-4.396-28-5.029-9.038-.606-17.617-.303-25.157.966-1.935.199-3.663.743-5.448 1.084-1.737.421-3.547.671-5.09 1.243-3.136 1.06-6.358 1.816-8.923 3.061-5.528 2.11-9.71 4.613-13.476 6.668-3.32 2.338-6.434 4.17-8.493 5.89-4.17 3.422-6.468 5.19-6.666 5.115-.193-.08 1.729-2.005 5.594-5.63 1.913-1.82 4.907-3.778 8.145-6.25 3.697-2.197 7.85-4.859 13.46-7.156 2.599-1.333 5.902-2.192 9.127-3.346 1.596-.62 3.47-.915 5.272-1.387 1.848-.387 3.65-.977 5.666-1.221 7.866-1.45 16.886-1.892 26.383-1.369 9.51.553 19.469 2.227 29.338 4.922 9.917 2.65 19.606 6.501 29.202 10.76 9.65 4.25 19.426 8.916 29.964 13.368 10.548 4.39 21.953 8.616 34.743 11.157 6.391 1.213 13.07 2.058 19.928 2.225 6.837.01 13.846-.255 20.648-1.514 13.756-2.184 26.52-7.196 37.905-13.438 22.737-12.737 40.396-30.061 56.528-48.474 8.26-9.22 16.723-18.727 27.386-27.609 10.625-8.825 23.351-17.289 39.56-23.066 16.27-5.705 35.005-8.02 53.093-7.03 1.132.07 2.277.059 3.397.196l3.34.445c2.223.311 4.462.569 6.654.931 4.203 1.047 8.651 1.75 12.503 3.21 8.166 2.396 15.008 5.991 21.506 9.587 12.52 7.57 22.163 16.31 30.823 24.982 8.63 8.705 16.26 17.447 24.397 25.631 8.317 8.195 15.904 16.567 22.896 24.612 7.129 7.942 14.056 15.86 24.749 20.597 5.25 2.39 11.23 4.025 17.491 4.9 6.194 1.022 12.606 1.35 18.873 1.575 12.503.421 24.517-.819 35.082-3.459 5.297-1.318 10.153-3.051 14.72-4.9 4.449-1.964 8.67-4.009 12.418-6.263 7.63-4.425 13.871-9.255 19.589-13.819 11.298-9.206 20.533-17.552 29.81-23.52 9.17-6.037 18.298-9.469 24.87-10.966 3.323-.7 5.893-1.146 7.681-1.272 1.763-.18 2.668-.236 2.691-.164" fill="#007071" mask="url(#b)"/></g></g><g transform="translate(367.728 377.398)"><mask id="d" fill="#fff"><use xlink:href="#c"/></mask><path d="M95.962 168.079c-2.49-6.658-11.598-4.852-17.2-4.844-8.272.011-16.546.063-24.818.142-.826.01-1.652.022-2.478.03.075-26.044.573-52.074.955-78.114.075-5.134.157-10.268.236-15.403.58-7.176.967-14.352.296-21.489.014-1.292.032-2.582.044-3.876.07-7.414-.006-14.835-.058-22.253.898-5.68 1.464-11.342.008-16.923.012-1.046.02-2.092.04-3.138C53.017.457 51.134.034 50.052.85c-3.113-1.401-7.647.92-6.19 4.957 2.32 6.438.835 12.877-.152 19.428-.997 6.624-.87 12.723.183 19.33.602 3.77.854 7.551.907 11.338-.399 7.113-.732 14.23-1.022 21.348-.217 3.1-.407 6.198-.5 9.296-.118 3.985-.187 7.97-.23 11.956-.587 21.662-.716 43.347-.712 65.013-12.156.169-24.313.415-36.467.735-2.173.057-3.821 1.43-4.51 3.431-2.57 7.464 4.635 12.017 11.076 12.446 1.602.107 3.21.134 4.822.133.56.232 1.209.357 1.954.337 15.86-.437 31.726-1.012 47.59-1.298 4.022-.073 8.05-.071 12.06.266 3.286.276 6.69 1.123 9.975.36 5.182-1.202 9.128-6.499 7.126-11.847" fill="#BFBFBF" mask="url(#d)"/></g><g transform="translate(323.38 165.894)"><mask id="f" fill="#fff"><use xlink:href="#e"/></mask><path d="M1.77 82.787c-2.43 33.412-2.496 67.011.665 100.364 1.43 15.08 3.2 30.409.136 45.243 38.226 13.154 79.941 3.752 120.212.275 14.959-1.291 29.98-1.743 44.995-1.808 4.65-.02 7.913-.046 12.088-2.091 4.975-2.438 8.287-7.483 9.826-12.808 1.539-5.325-.061-10.965-.257-16.506-1.042-29.252-3.89-59.242-3.89-88.514 0-30.77-1.183-53.621-2.085-86.008-.099-3.59 1.729-7.046 1.487-10.63-.239-3.584-1.89-7.3-5.057-8.986-2.338-1.244-5.113-1.224-7.76-1.165-37.39.832-74.744.32-111.883 4.75C49.67 6.168 34.341 7.59 23.671 7.724c-6.816.088-16.94.223-20.024 8.145-3.455 8.88-1.835 23.015-2.53 32.556-.832 11.453 1.486 22.907.653 34.363" fill="#F3F3F3" mask="url(#f)"/></g><g transform="translate(323.38 160.1)"><mask id="h" fill="#fff"><use xlink:href="#g"/></mask><path d="M3.711 19.999c2.328 1.387 5.216 1.355 7.931 1.248 8.71-.344 17.403-1.042 26.1-1.64 45.081-3.1 90.353-3.49 135.483-1.167 5.69.293 12.508.09 15.558-4.669 1.778-2.772 1.654-6.292 1.47-9.57-.042-.763-.101-.767-.548-1.389-.68-.947-1.998-1.143-3.165-1.252-20.356-1.904-40.85-1.53-61.27-.48-19.61 1.007-39.114-.66-58.685.866-9.784.763-19.59 1.327-29.409 1.4-9.73.074-19.266 1.502-28.953.962C.24 3.864-3.192 15.885 3.71 19.998" fill="#BFBFBF" mask="url(#h)"/></g><path d="M434.818 229.208a5.449 5.449 0 00-.13 1.016l.018-.067c.09-.315.125-.638.112-.949m-1.149 3.324a.382.382 0 01-.342-.221.415.415 0 01.168-.544c.195-.104.373-.24.533-.404a3.255 3.255 0 01-.112-.839 6.4 6.4 0 01.59-2.792.379.379 0 01.33-.225c.148-.016.275.07.346.2.427.772.522 1.75.261 2.68-.112.4-.284.769-.504 1.091.01.013.02.02.027.03.355.366 1.046.204 1.577-.068 1.16-.597 2.14-1.588 2.797-2.772-.06-1.009.272-2.044.952-2.775a.369.369 0 01.442-.08c.15.076.236.244.214.417a7.978 7.978 0 01-.814 2.623c.02.158.056.315.104.467a3.863 3.863 0 001.515-2.9.395.395 0 01.379-.387c.216.01.374.16.39.373.04.559.08 1.135.322 1.6.189.364.604.705.996.62.224-.05.442-.23.654-.406l2.583-2.15a.372.372 0 01.438-.03.414.414 0 01.176.423c-.118.65-.008 1.214.295 1.515.153.15.423.211.653.138.106-.03.243-.102.282-.256a.38.38 0 01.469-.286.406.406 0 01.272.493c-.1.4-.396.7-.809.827-.496.15-1.04.02-1.392-.327-.324-.321-.519-.778-.571-1.312l-1.92 1.6c-.256.211-.572.473-.972.563-.799.174-1.51-.409-1.828-1.024a1.768 1.768 0 01-.077-.162c-.398.857-1.046 1.586-1.855 2.032a.376.376 0 01-.517-.168c-.053-.104-.1-.21-.143-.317a7.496 7.496 0 01-2.697 2.388c-.992.51-1.909.477-2.453-.081l-.006-.007c-.178.159-.37.299-.577.409a.39.39 0 01-.176.044m23.75-5.46c-.26.481-.444.944-.454 1.42.305-.4.49-.935.454-1.42m-1.32-.18c-.06 0-.206.046-.359.165-.752.591-1.265 1.523-1.398 2.507.605-.038 1.272-.143 1.85-.447a.425.425 0 01-.07-.241l.023-1.705c.002-.157-.008-.25-.027-.277-.004-.002-.01-.002-.018-.002m1.825 3.709a1.45 1.45 0 01-.839-.285 2.035 2.035 0 01-.49-.494c-.865.477-1.858.564-2.668.58a.399.399 0 01-.284-.12.432.432 0 01-.113-.299c.025-1.384.694-2.758 1.745-3.587.521-.409 1.09-.432 1.416-.056.053.06.094.124.123.19.121-.212.246-.413.36-.595a.387.387 0 01.312-.183.373.373 0 01.322.163c.772 1.082.334 2.624-.564 3.448.08.106.172.198.271.269.145.101.364.202.606.107.226-.087.414-.308.637-.589l2.897-3.646a.376.376 0 01.39-.135.401.401 0 01.288.308l.701 3.258a10.414 10.414 0 003.24-3.388.387.387 0 01.433-.178.41.41 0 01.285.389l.039 1.956a11.538 11.538 0 003.336-2.97.384.384 0 01.41-.14.41.41 0 01.28.346l.106.923a3.058 3.058 0 001.32-1.743.394.394 0 01.389-.29.392.392 0 01.363.327c.104.529.78.793 1.385.752.317-.025.633-.105.97-.19.406-.103.826-.209 1.271-.217 1.006-.025 1.977.488 2.594 1.31a5.64 5.64 0 012.085-1.5.362.362 0 01.34.03.408.408 0 01.185.305c.078.675.156 1.376.475 1.933.264.463.797.864 1.299.73.318-.083.592-.362.881-.66.111-.113.225-.229.34-.334.574-.527 1.473-.833 2.08-.262.163.15.178.409.034.58a.374.374 0 01-.547.035c-.237-.22-.723-.037-1.06.269-.105.097-.204.2-.308.304-.332.343-.71.729-1.234.865-.91.238-1.755-.405-2.151-1.103-.305-.535-.432-1.134-.512-1.707a4.931 4.931 0 00-1.637 1.449.368.368 0 01-.34.159.39.39 0 01-.31-.217c-.42-.835-1.31-1.386-2.198-1.364-.362.006-.725.1-1.108.194-.35.09-.713.18-1.092.211-.627.048-1.319-.15-1.768-.597-.43.791-1.125 1.422-1.938 1.727a.369.369 0 01-.334-.037.42.42 0 01-.182-.3l-.064-.563a12.204 12.204 0 01-3.565 2.783.371.371 0 01-.373-.019.414.414 0 01-.186-.34l-.027-1.379a11.091 11.091 0 01-3.28 2.92.372.372 0 01-.346.014.413.413 0 01-.22-.283l-.645-3-2.397 3.014c-.221.28-.524.661-.962.833a1.31 1.31 0 01-.466.089m-18.794 9.919a3.332 3.332 0 00-1.248 2.384c-.012.205 0 .369.04.498.363-.424.68-.884.955-1.372.231-.412.457-1.109.253-1.51m-3.663 5.533c-.302 0-.57-.102-.777-.31-.218-.217-.306-.504-.355-.699-.36-1.482.43-3.132 1.792-3.76a.398.398 0 01.546.246 3.393 3.393 0 01-.697 3.26.394.394 0 01-.566.027.416.416 0 01-.024-.578c.461-.51.689-1.243.628-1.938-.73.582-1.123 1.626-.902 2.547.025.098.067.24.14.313.176.179.615.015.947-.211a8.6 8.6 0 001.142-.927c-.014-.018-.026-.039-.04-.06-.176-.288-.246-.651-.22-1.11.08-1.302.805-2.532 1.894-3.215a.394.394 0 01.435.01c.86.593.7 1.827.163 2.788a9.527 9.527 0 01-.958 1.397c.24.012.507-.03.753-.105 1.11-.346 2.093-1.097 2.78-2.063a5.244 5.244 0 01.97-2.214c.117-.15.316-.2.485-.12.17.08.264.268.223.452a6.157 6.157 0 01-.92 2.192 4.416 4.416 0 00-.016 1.152c.014.123.043.296.113.37a.15.15 0 00.123.047c.201-.007.54-.23.803-.534l2.045-2.353a.4.4 0 01.526-.068.411.411 0 01.132.52.767.767 0 00-.024.567.744.744 0 00.357.439.72.72 0 00.555.02.746.746 0 00.429-.367.394.394 0 01.533-.189c.2.097.284.34.188.544-.17.359-.494.643-.888.783a1.512 1.512 0 01-1.172-.06 1.55 1.55 0 01-.736-.842l-1.345 1.548c-.16.184-.735.79-1.38.808a.907.907 0 01-.716-.292c-.241-.25-.308-.582-.338-.844-.01-.076-.016-.154-.024-.23a6.081 6.081 0 01-2.468 1.513c-.517.16-1.127.213-1.62.02a9.54 9.54 0 01-1.34 1.104c-.415.28-.822.422-1.176.422m19.742-2.897a.382.382 0 01-.164-.037.402.402 0 01-.205-.231 7.89 7.89 0 01-.43-2.193 4 4 0 01-2.392 1.027.4.4 0 01-.416-.38.404.404 0 01.369-.432c1.01-.063 1.975-.654 2.518-1.54a.387.387 0 01.457-.166.407.407 0 01.264.424 7.13 7.13 0 00.242 2.587 14.784 14.784 0 004.89-3.377.38.38 0 01.46-.071.41.41 0 01.201.435 10.91 10.91 0 00-.15 2.67 9.059 9.059 0 003.833-3.09.38.38 0 01.43-.148.402.402 0 01.277.37l.094 2.205a12.11 12.11 0 003.882-2.76.382.382 0 01.512-.044c.157.12.206.341.112.521-.104.205-.087.411.057.63.295.446 1.014.763 1.575.696.377-.047.755-.162 1.154-.283.737-.22 1.5-.45 2.297-.255.248.061.478.157.699.25.325.136.63.267.921.24.236-.022.479-.153.735-.29.086-.047.171-.094.258-.137 1.762-.88 3.871-.458 5.411-.151.21.043.35.255.31.476a.397.397 0 01-.46.323c-1.855-.372-3.509-.621-4.923.086l-.234.123c-.3.162-.636.344-1.028.383-.476.047-.906-.138-1.286-.3-.203-.083-.394-.165-.58-.21-.6-.147-1.231.043-1.901.246-.412.122-.839.251-1.278.306-.857.109-1.853-.34-2.316-1.045a1.608 1.608 0 01-.165-.315 12.792 12.792 0 01-3.98 2.481.368.368 0 01-.353-.04.412.412 0 01-.177-.322l-.073-1.722a9.783 9.783 0 01-4.017 2.726.374.374 0 01-.335-.04.407.407 0 01-.18-.295 11.509 11.509 0 01-.04-2.284 15.451 15.451 0 01-4.74 2.926.35.35 0 01-.136.027m-1.892 9.096a1.251 1.251 0 00.026.439c.016-.139.014-.29-.026-.439zm7.846-1.247c-.167 0-.3.107-.393.315-.175.388-.118.943.128 1.234.069.082.147.153.234.219a1.57 1.57 0 00.448-.502c.144-.265.142-.67-.006-.961-.067-.133-.187-.292-.387-.305h-.024zm-25.284 4.706a.393.393 0 01-.346-.223c-.507-1.02-.403-2.32.258-3.238a.373.373 0 01.452-.134l2.215.919c2.54-.665 5.297-.359 7.655.84l.857-1.973a.395.395 0 01.301-.238.372.372 0 01.35.143c1.076 1.335 2.247 2.645 3.72 2.72.611.038 1.205-.363 1.585-.865a2.22 2.22 0 01-.4-1.33c.017-.496.213-.917.551-1.188a.374.374 0 01.502.027c.572.569.712 1.423.372 2.282-.006.016-.014.031-.02.048.488.304 1.123.363 1.697.375 1.444.036 2.89-.155 4.286-.56a6.49 6.49 0 00.45-.147c-.015-.019-.033-.038-.049-.056-.46-.546-.566-1.453-.251-2.154.234-.522.672-.82 1.166-.787.433.025.808.296 1.033.741.277.548.273 1.263-.006 1.778a2.216 2.216 0 01-.25.363l.031.002c.449 0 .858-.179 1.125-.49.158-.182.27-.413.327-.667a3.135 3.135 0 01-.679-2.1.417.417 0 01.229-.355.366.366 0 01.399.048c.492.399.81 1.037.867 1.753.012.123.014.247.008.369.478.472 1.082.703 1.65.63.58-.074 1.12-.456 1.481-1.05.177-.294.295-.608.346-.923a1.804 1.804 0 01-.047-1.203.394.394 0 01.372-.287h.002a.4.4 0 01.372.293c.098.336.133.69.108 1.046.03.052.06.098.092.14.335.445.925.722 1.428.668.966-.099 1.763-.834 2.632-1.709a.365.365 0 01.299-.113.38.38 0 01.277.16c.872 1.183 2.425 1.783 4.058 1.56 1.628-.222 2.995-1.214 3.562-2.593a.392.392 0 01.316-.246.378.378 0 01.358.17c.762 1.115 2.058 1.81 3.33 1.778h.004c.215 0 .39.185.392.413.004.231-.17.42-.386.422-1.363.02-2.663-.59-3.582-1.622-.782 1.356-2.197 2.277-3.896 2.506-1.774.241-3.416-.328-4.492-1.53-.718.71-1.65 1.517-2.795 1.635-.635.067-1.322-.191-1.823-.653a3.53 3.53 0 01-.27.542c-.488.803-1.233 1.322-2.043 1.425-.675.086-1.357-.116-1.942-.557a2.346 2.346 0 01-.377.615 2.234 2.234 0 01-1.702.76h-.013a2.347 2.347 0 01-.866-.17c-.344.183-.71.307-1.04.403a14.99 14.99 0 01-4.506.588c-.651-.015-1.446-.09-2.097-.504-.517.67-1.3 1.194-2.215 1.154-1.585-.081-2.793-1.234-3.874-2.527l-.775 1.78a.397.397 0 01-.228.22.37.37 0 01-.31-.025c-2.3-1.286-5.066-1.628-7.583-.934a.377.377 0 01-.24-.014l-2.036-.846c-.057.11-.102.22-.14.338.12.073.201.214.197.373l-.041 1.579a.409.409 0 01-.301.394.443.443 0 01-.09.01zm27.267 13.521c-.118 0-.239-.013-.365-.04-.206-.045-.337-.234-.295-.426.14-.66-.568-1.31-1.312-1.503-.635-.165-1.312-.121-2.028-.075-.236.014-.474.029-.713.036-1.357.046-2.728-.154-4.064-.346-2.38-.343-4.626-.664-6.589.306-.19.095-.388.203-.587.312-.961.524-2.055 1.12-3.134.608-.463-.22-.786-.596-1.1-.959-.405-.473-.681-.762-1.054-.762h-.021c-.398.013-.654.343-1.027.887-.272.398-.583.85-1.054 1.118-.561.32-1.196.325-1.787.017-.494-.257-.934-.726-1.245-1.282a.424.424 0 01-.224.05c-.217-.013-.38-.185-.369-.387l.1-1.445c.012-.196.166-.375.403-.342.212.007.38.168.38.364.002.926.612 2.028 1.337 2.404.347.181.674.181.997-.002.316-.18.552-.524.802-.89.384-.558.822-1.194 1.66-1.222.781-.037 1.288.539 1.715 1.036.272.317.53.618.841.764.698.332 1.517-.115 2.384-.588.21-.114.414-.226.617-.325 2.19-1.085 4.675-.727 7.075-.383 1.3.185 2.638.376 3.919.34.228-.008.457-.023.685-.037.75-.048 1.527-.097 2.29.099.94.244 1.834 1.014 1.9 1.926.43-.073.844-.454 1.275-.852a10.2 10.2 0 01.454-.401c.595-.495 1.65-.635 2.307-.303.183.092.323.216.417.363l4.339-2.532a.413.413 0 01.384-.018.363.363 0 01.215.293c.069.73.352 1.434.811 2.026.698-.774 1.835-1.188 3.1-1.098 1.201.084 2.22.601 2.801 1.395.786-.808 2.183-.994 3.25-1.137a20.945 20.945 0 007.89-2.728.412.412 0 01.541.112.349.349 0 01-.118.504 21.828 21.828 0 01-8.202 2.835c-1.162.154-2.61.348-3.038 1.276a.383.383 0 01-.37.221.388.388 0 01-.357-.238c-.41-1.015-1.539-1.448-2.457-1.512-.926-.064-2.104.205-2.671 1.153a.4.4 0 01-.298.185.405.405 0 01-.335-.115 4.716 4.716 0 01-1.237-2.24l-4.307 2.513a.422.422 0 01-.423-.004.358.358 0 01-.172-.361c.018-.103 0-.182-.138-.251-.327-.167-1.028-.11-1.412.205-.14.117-.28.246-.422.378-.555.507-1.172 1.078-1.964 1.078m-84.196-6.659c-.119 0-.239-.013-.365-.04-.207-.044-.337-.233-.296-.425.14-.66-.567-1.311-1.312-1.504-.634-.165-1.312-.12-2.027-.075-.236.015-.475.03-.713.037-1.358.046-2.729-.154-4.065-.347-2.38-.342-4.626-.663-6.588.307-.191.095-.388.203-.587.311-.962.525-2.055 1.12-3.135.609-.463-.22-.786-.596-1.099-.959-.406-.473-.682-.763-1.054-.763h-.022c-.398.013-.654.343-1.026.888-.272.398-.583.85-1.054 1.118-.562.319-1.196.325-1.787.017-.495-.257-.934-.726-1.245-1.282a.424.424 0 01-.225.05c-.217-.013-.38-.186-.368-.387l.1-1.445c.012-.196.166-.376.402-.343.213.008.38.169.38.365.002.926.613 2.028 1.338 2.404.347.181.674.181.997-.002.315-.18.552-.525.802-.89.384-.559.821-1.195 1.659-1.222.782-.037 1.288.539 1.716 1.036.272.317.53.617.841.764.697.332 1.517-.115 2.384-.588.209-.114.414-.226.617-.325 2.19-1.085 4.675-.728 7.074-.383 1.3.185 2.639.376 3.92.34.228-.008.456-.023.685-.038.75-.047 1.527-.097 2.29.1.939.243 1.833 1.013 1.9 1.926.43-.073.844-.454 1.275-.852.152-.14.301-.277.453-.402.595-.495 1.651-.634 2.307-.302.183.091.323.216.418.363l4.338-2.532a.413.413 0 01.384-.018.363.363 0 01.215.293c.07.73.353 1.434.812 2.026.697-.774 1.834-1.188 3.099-1.098 1.202.084 2.22.6 2.802 1.395.786-.809 2.183-.994 3.25-1.137a20.945 20.945 0 007.889-2.728.412.412 0 01.542.112.349.349 0 01-.118.504 21.828 21.828 0 01-8.202 2.834c-1.163.154-2.61.349-3.038 1.276a.383.383 0 01-.37.222.388.388 0 01-.357-.238c-.41-1.016-1.539-1.448-2.457-1.513-.926-.064-2.104.206-2.672 1.154a.4.4 0 01-.297.185.405.405 0 01-.335-.116 4.716 4.716 0 01-1.237-2.24l-4.307 2.513a.422.422 0 01-.424-.003.358.358 0 01-.171-.361c.018-.103 0-.182-.138-.252-.327-.166-1.029-.11-1.413.206-.14.117-.28.245-.421.377-.556.508-1.173 1.078-1.965 1.078m6.611-19.627c-.118 0-.238-.013-.364-.04-.207-.044-.337-.233-.296-.426.14-.66-.567-1.31-1.312-1.503-.634-.165-1.312-.12-2.027-.075-.237.015-.475.03-.713.037-1.358.045-2.73-.154-4.065-.347-2.38-.343-4.626-.664-6.588.306-.191.096-.388.204-.587.312-.962.524-2.055 1.12-3.135.609-.463-.22-.786-.596-1.1-.96-.405-.472-.68-.762-1.053-.762h-.022c-.398.013-.654.343-1.026.887-.272.398-.584.851-1.054 1.119-.562.319-1.196.324-1.787.016-.495-.256-.934-.726-1.245-1.281a.424.424 0 01-.225.05c-.217-.014-.38-.186-.369-.388l.101-1.444c.012-.196.165-.376.402-.343.213.007.38.169.38.365.002.926.613 2.027 1.338 2.403.347.182.674.182.997-.002.315-.18.551-.524.802-.889.384-.559.821-1.195 1.659-1.223.782-.036 1.288.54 1.716 1.036.271.317.53.618.84.765.698.332 1.518-.116 2.385-.589.209-.113.413-.225.616-.324 2.191-1.086 4.676-.728 7.075-.383 1.3.185 2.638.375 3.919.339.229-.008.457-.022.686-.037.75-.048 1.526-.097 2.289.1.94.243 1.834 1.013 1.901 1.926.43-.073.843-.455 1.275-.853.152-.139.301-.276.453-.401.595-.495 1.651-.634 2.307-.303.183.092.323.217.418.363l4.338-2.531a.413.413 0 01.384-.019.363.363 0 01.215.294c.069.73.353 1.433.812 2.025.697-.773 1.834-1.188 3.099-1.098 1.202.085 2.22.602 2.801 1.395.787-.808 2.183-.993 3.251-1.136a20.945 20.945 0 007.889-2.728.412.412 0 01.542.112.349.349 0 01-.119.504 21.828 21.828 0 01-8.201 2.834c-1.163.154-2.61.348-3.038 1.276a.383.383 0 01-.37.222.388.388 0 01-.357-.238c-.41-1.016-1.54-1.449-2.457-1.513-.926-.064-2.104.205-2.672 1.153a.4.4 0 01-.297.185.405.405 0 01-.335-.115 4.716 4.716 0 01-1.238-2.24l-4.306 2.513a.422.422 0 01-.424-.004.358.358 0 01-.171-.36c.017-.103 0-.182-.138-.252-.327-.167-1.029-.11-1.413.205-.14.118-.28.246-.421.378-.556.508-1.173 1.078-1.965 1.078m5.846 71.49c-.07.19-.112.4-.12.627.053-.207.093-.416.12-.627m6.153-1.54c-.534.707-1.069 1.532-1.144 2.418-.027.324.038.671.176.984a.882.882 0 00.061-.06c.864-.874 1.36-2.272.907-3.342m-26.285 8.487a.394.394 0 01-.343-.196 7.074 7.074 0 01-.918-3.883 11.48 11.48 0 01-6.987 3.26.384.384 0 01-.424-.333 7.504 7.504 0 01-.045-1.458c-.605.503-1.266.938-1.968 1.293a.4.4 0 01-.53-.163.376.376 0 01.169-.514 9.827 9.827 0 002.5-1.814 8.148 8.148 0 012.598-4.378.404.404 0 01.467-.039.38.38 0 01.174.424c-.452 1.619-1.333 3.126-2.515 4.357a7.064 7.064 0 00-.108 1.824c2.72-.351 5.291-1.803 6.942-3.935a.394.394 0 01.48-.113c.17.076.26.259.214.435a6.316 6.316 0 00.445 4.307 27.72 27.72 0 006.603-5.743c.1-.121.27-.173.422-.125.154.046.262.18.274.336.045.571.353 3.419 2.06 3.44h.019c.66 0 1.272-.466 1.792-.903a30.98 30.98 0 004.329-4.465.403.403 0 01.363-.145.391.391 0 01.311.232c.35.818.2 1.668.056 2.489-.056.316-.113.633-.136.945-.05.63.205 1.339.603 1.69.209.182.43.249.674.207.278-.048.54-.255.738-.43.5-.445.917-.982 1.232-1.572a3.185 3.185 0 01-.262-1.205c-.023-.953.389-1.752 1.126-2.193a.401.401 0 01.387-.016c.12.062.2.18.21.315a6.373 6.373 0 01-.581 3.1c.195.32.46.587.771.756 1.126.61 2.524.297 3.552-.376a2.792 2.792 0 01-.333-1.543c.108-1.306.966-2.397 1.654-3.276a.398.398 0 01.623 0c1.12 1.423.527 3.554-.694 4.79-.057.06-.116.118-.177.173.2.188.52.391.93.368.448-.025.876-.295 1.245-.548a16.687 16.687 0 003.893-3.692.398.398 0 01.465-.124.378.378 0 01.237.412c-.12.742.004 1.528.339 2.207l5.885-3.662c.53-.332 1.193-.745 1.96-.796 1.717-.108 2.605 1.321 3.473 2.711.349.56.712 1.141 1.116 1.59 1.404 1.567 3.845 1.762 5.636 1.266 2.096-.585 3.857-2.008 5.3-3.322a.405.405 0 01.553.014.375.375 0 01-.006.535c-.416.404-.24.91-.098 1.175.335.631 1.16 1.205 1.952 1.07 1.436-.241 2.4-1.578 3.264-2.926a.396.396 0 01.493-.146c.18.079.272.273.215.457-.231.753-.06 1.614.467 2.358.568.8 1.442 1.318 2.335 1.383 1.676.125 3.354-1.18 3.747-2.853-.053-.171-.02-.378.17-.566a.403.403 0 01.45-.079.381.381 0 01.222.359c.118.007.272-.014.357-.075l4.293-3.214a.397.397 0 01.408-.042.38.38 0 01.223.335c.026 1.283.113 2.5.878 3.291.392.409 1.116.577 1.715.407.277-.08.626-.261.704-.675a.39.39 0 01.456-.305.38.38 0 01.314.445c-.117.611-.572 1.072-1.253 1.265-.883.255-1.915 0-2.508-.613-.783-.812-.996-1.918-1.063-3.051l-3.69 2.761c-.262.198-.657.269-.994.223-.6 1.877-2.532 3.286-4.488 3.148-1.128-.082-2.22-.723-2.92-1.712a3.745 3.745 0 01-.658-1.544c-.773 1.02-1.72 1.906-3.003 2.121-1.19.2-2.323-.608-2.783-1.47a2.062 2.062 0 01-.224-.636c-1.308 1.088-2.834 2.12-4.611 2.614-2.03.566-4.812.322-6.445-1.496-.45-.5-.828-1.108-1.197-1.697-.779-1.248-1.489-2.433-2.747-2.345-.566.038-1.11.378-1.591.677l-6.236 3.883a.403.403 0 01-.544-.119 4.447 4.447 0 01-.667-1.889 17.563 17.563 0 01-3.343 2.967c-.49.336-1.029.65-1.65.685-.574.038-1.136-.196-1.578-.637a.045.045 0 01-.014-.013c-1.254.834-2.962 1.194-4.391.418a2.797 2.797 0 01-.803-.662c-.32.504-.714.97-1.17 1.375-.274.244-.65.535-1.128.618-.485.086-.948-.052-1.337-.394-.583-.512-.928-1.442-.861-2.312.025-.336.084-.677.146-1.017.082-.466.16-.918.143-1.338a31.678 31.678 0 01-3.916 3.931c-.68.575-1.438 1.097-2.335 1.091-1.38-.017-2.366-1.216-2.721-3.254a28.57 28.57 0 01-6.571 5.452.407.407 0 01-.207.057m107.214-5.794c-.356 0-.696-.07-1.007-.211-1.113-.507-1.526-1.717-1.672-2.714l-1.661 1.472c-.2.176-.47.416-.83.486-.717.141-1.35-.484-1.497-1.146a2.287 2.287 0 01-.025-.772 19.476 19.476 0 01-5.405 1.974c-.797.16-1.71.256-2.433-.267-.838-.607-1.037-1.699-.596-3.083a498.752 498.752 0 01-4.443 3.135c-.377.26-.889.618-1.494.618h-.016a1.564 1.564 0 01-1.14-.5c-.793-.836-.82-2.408-.808-2.87a.406.406 0 01.396-.385.394.394 0 01.381.405c-.023.995.21 1.896.593 2.298a.776.776 0 00.586.26h.004c.342 0 .68-.216 1.059-.48a544.822 544.822 0 005.574-3.942.38.38 0 01.483.028.4.4 0 01.082.484c-.32.598-1.282 2.61-.211 3.385.484.35 1.196.267 1.829.136 2.1-.428 4.099-1.21 5.941-2.324a.38.38 0 01.438.028c.125.1.178.269.133.426-.121.41-.256.873-.168 1.273.063.288.342.593.592.541.154-.03.319-.177.465-.306l2.235-1.98a.385.385 0 01.409-.063.4.4 0 01.234.35c.022.678.192 2.311 1.282 2.81.61.277 1.45.136 2.249-.381.402-.26.764-.577 1.149-.911.316-.279.645-.563 1-.818a6.847 6.847 0 015.756-1.03.395.395 0 01.272.485.38.38 0 01-.475.278 6.092 6.092 0 00-5.107.914c-.325.232-.624.493-.94.771-.389.339-.79.687-1.237.977-.662.43-1.346.649-1.977.649m8.395 15.452a.394.394 0 01-.338-.189 56.358 56.358 0 01-2.164-3.985c-.748.121-1.34.741-1.965 1.393-.636.664-1.293 1.352-2.204 1.634-1.416.438-2.8-.308-3.5-.794-.432-.3-.83-.641-1.217-.972-.46-.391-.891-.762-1.376-1.068a6.257 6.257 0 00-4.68-.788c-.575.134-1.17.357-1.745.573-1.334.499-2.714 1.015-4.125.57-.634-.2-1.16-.568-1.666-.926-.42-.293-.816-.569-1.254-.746-.961-.392-2.164-.24-2.99.38a.402.402 0 01-.399.047.373.373 0 01-.231-.316 2.79 2.79 0 00-.073-.461 8.57 8.57 0 01-2.885 1.915.394.394 0 01-.51-.202.372.372 0 01.208-.492 7.721 7.721 0 003.034-2.193.397.397 0 01.66.08c.105.225.19.457.249.697a3.95 3.95 0 013.241-.15c.522.213.972.528 1.407.834.483.337.935.655 1.453.819 1.146.363 2.337-.085 3.599-.558.598-.225 1.218-.457 1.844-.603 1.782-.414 3.76-.08 5.291.89.532.337 1.007.744 1.464 1.137.39.33.757.644 1.158.922.987.684 2.01.934 2.804.688.716-.22 1.276-.807 1.868-1.427.771-.805 1.568-1.639 2.771-1.658h.006a.39.39 0 01.353.218 55.902 55.902 0 002.251 4.168.368.368 0 01-.145.512.397.397 0 01-.194.051m-92.093 2.897c-.1 0-.203-.002-.304-.008-2.89-.149-5.604-2.226-6.836-5.146-.88 1.283-1.837 2.39-3.223 2.793-.97.282-2.164-.042-2.934-.793a4.075 4.075 0 01-.164.371c-.547 1.081-1.6 1.964-2.751 2.306-1.959.58-4.054.004-5.738-.458a.41.41 0 01-.279-.498.392.392 0 01.482-.287c1.59.438 3.566.982 5.318.462a3.863 3.863 0 002.27-1.9c.115-.226.226-.515.28-.842a2.069 2.069 0 01-.092-1.323.397.397 0 01.368-.3c.183-.022.327.106.385.276.128.391.177.797.146 1.205.089.152.191.275.276.362.567.58 1.497.849 2.22.639 1.356-.396 2.292-1.695 3.21-3.105a.385.385 0 01.38-.176.4.4 0 01.32.275c.957 2.993 3.59 5.185 6.401 5.33 1.999.102 3.948-.95 5.093-2.524a4.421 4.421 0 01-.051-.35c-.11-1.175.389-2.14 1.303-2.517a.387.387 0 01.383.053.42.42 0 01.154.37 6.004 6.004 0 01-.938 2.59c.215.661.691 1.265 1.367 1.395.67.13 1.378-.088 1.984-.616.762-.662 1.228-1.68 1.213-2.654a.41.41 0 01.272-.392.386.386 0 01.442.151c1.365 1.99 4.426 1.733 6.635.908.448-.17.899-.353 1.353-.539 2.024-.83 4.115-1.686 6.273-1.182.512.12 1.033.312 1.537.497 1.244.457 2.417.89 3.321.24.176-.125.342-.293.52-.472.396-.402.846-.858 1.502-.869 1.003-.012 1.428.938 1.78 1.778.232.563.475 1.142.874 1.411.697.467 1.702-.122 2.348-.868.134-.155.266-.319.399-.484.618-.764 1.258-1.557 2.247-1.796 1.033-.25 2.07.19 3.074.616 1.288.546 2.115.834 2.718.21a.382.382 0 01.554 0 .413.413 0 010 .573c-1.015 1.05-2.314.501-3.57-.033-.89-.375-1.809-.766-2.596-.577-.735.178-1.262.834-1.825 1.527-.136.172-.275.34-.415.504-.888 1.03-2.276 1.74-3.363 1.009-.596-.404-.9-1.13-1.169-1.77-.331-.797-.562-1.288-1.036-1.288h-.01c-.34.006-.63.298-.964.636a4.823 4.823 0 01-.62.56c-1.234.887-2.658.364-4.032-.142-.484-.18-.981-.363-1.445-.471-1.92-.447-3.898.363-5.812 1.146-.462.187-.92.375-1.376.546-2.293.856-5.18 1.105-6.931-.495a4.457 4.457 0 01-1.39 2.342c-.79.687-1.732.967-2.637.791-.833-.16-1.425-.754-1.77-1.453-1.263 1.478-3.164 2.456-5.131 2.456m-30.932 19.316c-1.537 0-2.862-1.18-3.957-3.512a3.73 3.73 0 00.755 1.66.457.457 0 01-.029.606.367.367 0 01-.551-.033c-.913-1.114-1.255-2.766-.868-4.206a.402.402 0 01.36-.308c.135-.016.32.103.378.275 1.117 3.198 2.5 4.759 4.073 4.655 1.032-.07 1.862-.853 2.741-1.681.591-.559 1.203-1.137 1.914-1.525 2.298-1.257 4.73-.222 7.081.777 1.59.674 3.237 1.373 4.836 1.373h.014c.977-.002 1.998-.27 2.985-.528 1.621-.427 3.297-.867 4.907-.186.45.19.857.455 1.252.714.42.274.816.53 1.244.694 1.545.585 3.243-.155 4.885-.873l.566-.246c4.841-2.067 10.286-2.46 15.334-1.108.208.056.337.289.286.517-.05.231-.265.376-.47.317-4.894-1.313-10.173-.931-14.868 1.074l-.56.242c-1.689.74-3.607 1.578-5.428.888-.504-.192-.952-.485-1.387-.768-.383-.25-.746-.487-1.135-.65-1.382-.585-2.87-.195-4.445.22-1.03.269-2.096.549-3.164.551h-.016c-1.747 0-3.46-.729-5.118-1.432-2.293-.974-4.46-1.895-6.452-.806-.622.339-1.197.882-1.752 1.406-.938.884-1.908 1.798-3.203 1.886a3.4 3.4 0 01-.208.007m61.275-.966c-.096 0-.19-.004-.286-.014-.954-.094-1.85-.665-2.455-1.567-.605-.9-.817-1.975-.581-2.95.055-.22.265-.359.48-.298.21.058.339.282.283.502-.178.74-.01 1.567.462 2.27.474.704 1.16 1.149 1.884 1.22.742.072 1.48-.231 2.07-.827.382-.387.647-.848.776-1.333a1.677 1.677 0 01.121-1.007.388.388 0 01.433-.229.41.41 0 01.319.38c.014.285-.004.568-.06.848.036.102.086.193.135.27.31.478.919.794 1.424.757 1.008-.073 1.873-.859 2.707-1.62 1.038-.945 2.134-1.763 3.412-1.657 1.227.101 2.098.993 2.939 1.853.313.32.605.622.916.883 1.87 1.582 4.762 1.68 6.723.225l.298-.225c1.005-.762 2.384-1.81 3.528-.885.232.187.397.428.544.64.138.202.271.393.43.501.535.355 1.311-.156 2-.605 3.432-2.24 7.54-1.887 11.516-1.542 3.425.298 6.97.603 10.03-.748.352-.154.694-.33 1.037-.505.394-.201.787-.4 1.192-.573.767-.329 1.566-.549 2.342-.765l6.06-1.677a.393.393 0 01.485.295.417.417 0 01-.282.505l-6.06 1.677c-.752.208-1.528.422-2.248.73-.389.166-.765.359-1.142.55-.357.183-.712.366-1.077.526-3.24 1.43-6.878 1.116-10.4.81-4.025-.349-7.824-.677-11.01 1.403-.825.538-1.915 1.251-2.867.617-.288-.193-.478-.471-.647-.717-.125-.183-.244-.353-.383-.465-.628-.507-1.505.077-2.586.898l-.303.228c-2.241 1.665-5.542 1.553-7.676-.253-.339-.29-.66-.618-.971-.936-.776-.793-1.508-1.544-2.45-1.62-.997-.086-1.924.631-2.784 1.413-.938.854-1.946 1.772-3.217 1.864-.714.054-1.466-.293-1.956-.877a3.957 3.957 0 01-.7.96c-.68.69-1.543 1.07-2.405 1.07m54.032 10.624a.388.388 0 01-.31-.157 35.071 35.071 0 01-2.182-3.244c-1.719 1.393-3.705 2.726-5.84 2.283-.787-.163-1.487-.555-2.165-.933-.434-.246-.847-.475-1.282-.648-1.844-.74-3.815-.382-5.9 0-1.199.216-2.437.443-3.661.445h-.034c-.756 0-1.545-.077-2.309-.149-2.179-.207-4.236-.405-5.673.976-.068.063-.132.131-.198.197-.299.307-.638.655-1.118.759-.618.13-1.194-.212-1.575-.441l-5.008-2.998c-3.236 2.34-7.293 3.36-11.174 2.8a.416.416 0 01-.34-.474c.029-.231.222-.39.445-.36 3.772.542 7.712-.482 10.82-2.808a.376.376 0 01.422-.023l5.226 3.13c.368.22.73.415 1.028.345.254-.053.48-.288.722-.537.074-.074.146-.148.217-.216 1.695-1.626 4.025-1.403 6.276-1.19.748.07 1.517.145 2.239.145h.032c1.158-.002 2.362-.223 3.527-.435 2.099-.381 4.27-.776 6.315.045.48.19.933.445 1.372.689.656.367 1.274.712 1.948.852 1.95.403 3.887-1.03 5.55-2.406a.374.374 0 01.313-.083.39.39 0 01.267.195 34.758 34.758 0 002.359 3.554.442.442 0 01-.06.593.378.378 0 01-.25.094m-57.883 1.931a.448.448 0 01-.091-.01c-.213-.058-.345-.295-.295-.531.088-.41-.026-.768-.34-1.068-.625-.593-1.861-.772-2.7-.39-.441.2-.889.474-1.323.74-1.073.656-2.177 1.337-3.453 1.118-.882-.15-1.64-.719-2.37-1.265-.859-.64-1.67-1.249-2.53-1.028-.466.12-.876.476-1.312.854-.514.446-1.043.906-1.734 1.036-.92.173-1.716-.29-2.488-.74a10.23 10.23 0 00-.724-.398c-1.603-.774-3.464-.526-5.267-.285-.38.05-.762.101-1.139.141-3.479.385-7.028-.07-10.46-.513-4.306-.552-8.763-1.123-12.98.016-.216.057-.429-.089-.48-.325-.05-.234.08-.473.292-.53 4.355-1.177 8.883-.598 13.26-.034 3.392.436 6.897.887 10.29.51.373-.039.747-.088 1.123-.138 1.907-.255 3.878-.52 5.675.351.26.126.52.276.776.424.69.4 1.344.776 1.989.655.493-.093.923-.467 1.38-.865.483-.42.982-.853 1.621-1.016 1.199-.305 2.19.437 3.15 1.156.658.493 1.34 1.003 2.05 1.123 1.002.172 1.948-.407 2.951-1.02.452-.276.92-.563 1.403-.782 1.119-.506 2.664-.272 3.515.537.542.515.753 1.203.596 1.939-.042.201-.205.338-.385.338m-32.543-69.617c-.953.213-1.76 1.045-1.875 1.999-.029.229-.002.485.083.698a2.636 2.636 0 001.398-1.129 2.562 2.562 0 00.394-1.568m-1.145 3.945c-.172 0-.35-.024-.526-.085-.818-.288-1.095-1.214-1.006-1.954.176-1.455 1.488-2.656 2.985-2.74.213-.007.366.113.413.297.212.815.057 1.73-.427 2.512-.298.48-.698.876-1.158 1.156.039-.007.075-.013.112-.021 1.222-.255 2.371-1.03 3.298-2.195.154-.685.543-1.318 1.127-1.727a.412.412 0 01.494.02c.142.117.184.31.103.472a9.852 9.852 0 01-.977 1.577c-.047.313-.022.64.079.939.973-.553 1.748-1.464 2.109-2.502a.403.403 0 01.35-.265.654.654 0 01.493.156c.253.225.26.592.266.916.002.102.002.205.014.294.01.069.038.156.18.227.269.132.742.098 1.058-.073.172-.091.34-.203.508-.314.48-.318 1.024-.675 1.688-.651.526.017.965.276 1.35.503.212.126.414.245.617.322.271.102.657.01.821-.14.083-.077.067-.127.055-.16a.394.394 0 01.26-.496.406.406 0 01.507.253c.117.351.02.706-.27.97-.406.378-1.12.51-1.663.305a4.845 4.845 0 01-.744-.381c-.332-.195-.644-.38-.964-.393-.4-.016-.793.245-1.204.517-.19.125-.376.249-.57.354-.559.3-1.304.335-1.811.086-.35-.173-.567-.465-.618-.827v-.01a5.584 5.584 0 01-2.456 2.207.413.413 0 01-.522-.162 2.574 2.574 0 01-.298-.803c-.919.906-1.983 1.514-3.112 1.748a2.788 2.788 0 01-.56.068m-52.225-38.631a.436.436 0 01-.204-.05.368.368 0 01-.2-.296 6.049 6.049 0 01.552-3 .413.413 0 01.459-.216c.19.039.323.194.32.372l-.023.932c-.006.2-.181.359-.397.363-.061.29-.1.581-.112.877.83-.55 1.417-1.41 1.576-2.339.008-.065.018-.129.028-.19.035-.2.238-.34.452-.313.22.026.375.206.35.408a2.046 2.046 0 01-.026.19c-.04.37-.019.747.069 1.11.542-.043 1.055.1 1.56.242.246.069.494.138.743.181.417.07.963-.073 1.213-.32.145-.142.13-.264.108-.342-.057-.2.073-.404.289-.455.218-.052.438.066.495.266.108.372 0 .743-.3 1.038-.437.434-1.26.662-1.952.545a9.387 9.387 0 01-.835-.203c-.535-.15-1.042-.291-1.498-.168-.214.058-.434-.05-.501-.241a.826.826 0 00-.026-.075 4.567 4.567 0 01-1.967 1.648.42.42 0 01-.173.036M347.65 238a.416.416 0 00-.048.003c-.107.018-.21.082-.231.145-.032.085-.013.175.038.263.1-.114.22-.236.362-.348a.49.49 0 01-.07-.052c-.008-.01-.03-.011-.05-.011m-.188 1.293a.495.495 0 01-.265-.074c-.537-.336-.786-.822-.638-1.24.105-.29.45-.531.863-.599.36-.06.706.023.923.223a.33.33 0 01.071.097 1.8 1.8 0 01.74-.092c.515.042.892.288 1.223.503.116.077.232.152.354.218.185.1.49.141.661.093.07-.02.076-.043.08-.06.057-.17.287-.275.51-.23.225.041.36.215.305.387-.078.234-.293.414-.602.502-.432.12-1.021.052-1.436-.17a5.724 5.724 0 01-.417-.254c-.272-.178-.508-.332-.767-.353-.379-.03-.809.263-1.234.877a.422.422 0 01-.286.165.744.744 0 01-.085.007m24.777-13.521c-.555 0-1.116-.418-1.413-1.066a2.016 2.016 0 01-.185-.826c-.068-.291.022-.616.248-.884a.311.311 0 01.48-.016c.096.1.139.251.12.398a.429.429 0 01.136.237.613.613 0 01-.19.618l.015.038c.175.382.54.63.83.617.862-.067 1.376-1.262 1.513-1.628.085-.22.295-.318.475-.215.18.104.257.366.174.588-.478 1.273-1.27 2.07-2.118 2.137-.029.002-.056.002-.084.002m29.475 0c-.678 0-1.208-.635-1.556-1.42a4.791 4.791 0 01-1.704 1.196.355.355 0 01-.327-.036.426.426 0 01-.18-.303 26.843 26.843 0 01-.2-3.356 5.178 5.178 0 01-2.603 1.13.354.354 0 01-.31-.118.452.452 0 01-.113-.337 5.95 5.95 0 011.402-3.388.357.357 0 01.486-.059c.153.112.21.33.138.517l-.858 2.194a.386.386 0 01-.331.253l-.002.008a4.685 4.685 0 002.32-1.434.35.35 0 01.423-.093c.145.067.237.23.23.403a26.16 26.16 0 00.11 3.613 4.154 4.154 0 001.339-1.23.37.37 0 01.365-.158.39.39 0 01.297.283c.178.59.658 1.66 1.23 1.468.186-.061.351-.257.527-.464.08-.095.161-.19.245-.276.435-.452 1.145-.675 1.6-.2a.453.453 0 01.016.592.36.36 0 01-.54.017c-.09-.095-.366.006-.555.202-.073.076-.14.156-.21.239-.225.265-.481.567-.86.694a1.245 1.245 0 01-.38.063" fill="#606060"/><path fill="#0C2C43" d="M596.557 367.222l-27.462 98.256-20.037 72.42h-14.614l21.292-170.676z"/><path d="M604.331 367.222c.64 50.642 2.82 78.264 3.491 82.865.671 4.601 10.822 33.872 30.452 87.812h-15.239c-24.99-51.747-38.94-81.017-41.85-87.812-2.91-6.795-11.892-34.417-25.419-82.865h48.565z" fill="#0D3552"/><path d="M640.128 550.956l-.775-16.159h-16.277c-7.718 5.387-17.794 9.747-30.228 13.081v3.078h29.453l10.076-1.54v1.54h7.75zm-88.997 0l-.775-16.159H534.08c-7.718 5.387-17.794 9.747-30.228 13.081v3.078h29.453l10.076-1.54v1.54h7.75z" fill="#241C16"/><path d="M518.839 262.429l-25.373-14.337c-4.164-5.097-8.288-9.068-12.373-11.914-1.254-.543-3.46-.893-1.465 2.786 1.995 3.68 3.926 7.64 2.85 8.75-1.078 1.108-3.675-.501-4.97 1.349-.864 1.233 3.587 3.266 13.353 6.099l18.298 17.232 9.68-9.965z" fill="#F5C5A3"/><path d="M589.353 292.42l3.751-14.147c-37.303-1.095-58.162-9.013-96.543-31.629l-9.417 11.284c30.13 20.49 56.726 34.018 85.944 35.726 9.807.574 6.24 2.758 16.265-1.234z" fill="#D39340"/><path d="M612.316 369.003c-29.144 3.22-52.085 3.22-68.82 0-2.074-.4-1.983-9.391-1.021-11.847 14.974-38.244 24.824-66.24 24.824-92.804 2.747 1.444 7.556 1.66 14.425.649 18.46 27.374 26.947 58.783 30.592 104.002z" fill="#202122"/><g transform="matrix(-1 0 0 1 562.256 287.946)"><mask id="j" fill="#fff"><use xlink:href="#i"/></mask><path d="M1.771 42.706c-.148-1.836-.642-9.385.398-10.907.406-.59.962-1.06 1.518-1.513 4.096-3.319 8.319-2.416 12.863-5.095 3.792-2.237 8.287-2.518 12.082-4.754.948-.558 2.087-1.134 3.096-.697.692.3 1.113.998 1.432 1.677 1.493 3.16 1.827 6.723 2.085 10.206a333.506 333.506 0 01.4 43.07c-.079 1.429-.184 2.914-.893 4.159-1.36 2.379-4.4 3.107-7.105 3.605L5.2 86.592c-2.194.406-5.99.131-5.053-3.052.34-1.157.886-1.944 1.044-3.23.215-1.747.37-3.505.52-5.259.58-6.86.8-13.75.659-20.632-.083-3.91-.282-7.816-.598-11.713" fill="#E9EDEF" mask="url(#j)"/></g><path d="M648.471 445.565c-33.093-13.328-67.09 3.354-90.905-2.007-12.884-66.782 24.222-144.978 21.535-180.794h7.876c4.424 10.68 16.203 26.742 21.983 42.876 4.761 13.291-1.409 26.91.834 40.908 4.983 31.096 37.264 68.152 38.677 99.017z" fill="#D39340"/><path d="M590.336 348.47c-11.448 2.905-18.47 4.552-21.066 4.94-1.904.285-8.846 4.716-13.053 7.989-1.689 1.313-2.923.14-3.104-.622-1.476-6.202 3.362-8.397 6.876-12.207 3.85-4.175-2.656-5.832.328-9.164 2.258 2.055 6.275 6.45 9.936 6.181a3524.3 3524.3 0 0012.986-1.013l7.097 3.895z" fill="#F5C5A3"/><path d="M589.163 262.764c20.566 18.843 34.962 43.727 43.187 74.652 1.729 6.502-67.407 16.71-64.782 26.523v-23.08c28.327-3.881 39.536-13.737 41.36-14.43 2.693-1.025-7.133-19.247-29.477-54.668v-9.06l9.712.063z" fill="#BF853A"/><path d="M558.77 261.144c6.943 1.8 33.564-11.973 32.172-31.932-1.392-19.96-29.01-15.569-34.381-5.495-5.372 10.074-4.734 35.627 2.209 37.427z" fill="#FFE2CD"/><path d="M593.775 201.208c-7.68 0-13.905 6.264-13.905 13.99l.001-.199c-11.177-3.896-25.681.657-23.74 9.787 1.033 4.862 5.85 7.706 11.252 10.323l.708.34.356.17.834.393.418.197.838.395.23.109a5.722 5.722 0 014.98-2.862c3.153 0 5.708 2.506 5.708 5.596a5.497 5.497 0 01-.903 3.023c2.234 1.954 3.81 4.308 4.191 7.36 3.6 0 9.42-10.636 7.499-20.726a14.12 14.12 0 001.533.084c7.68 0 13.906-6.264 13.906-13.99s-6.226-13.99-13.906-13.99z" fill="#FFD571"/><path fill="#2B2C2E" d="M214 353l29.623 106.232 21.613 78.3H281L258.033 353z"/><path d="M205.614 353c-.69 54.753-3.042 84.617-3.766 89.592-.724 4.975-11.673 36.621-32.848 94.94h16.438c26.957-55.947 42.005-87.594 45.144-94.94 3.139-7.346 12.827-37.21 27.418-89.592h-52.386z" fill="#2B2C2E"/><path d="M167 551.649l.836-17.47h17.557c8.326 5.823 19.195 10.537 32.607 14.142v3.328h-31.77l-10.87-1.664v1.664H167zm96 0l.836-17.47h17.557c8.326 5.823 19.195 10.537 32.607 14.142v3.328h-31.77l-10.87-1.664v1.664H263z" fill="#241C16"/><path d="M168.745 341.404l14.376.08c-15.702 35.724-23.889 54.428-24.56 56.114-1.513 3.791 1.711 9.576 3.091 12.683-4.474 2.012-4.01-5.465-9.653-2.827-5.151 2.408-9.065 6.781-15.028 3.067-.733-.457-1.539-2.173.398-3.51a90.213 90.213 0 004.423-3.282l.607-.482c3.635-2.903 7.046-6.011 7.683-7.317 1.278-2.62 7.499-20.795 18.663-54.526zm182.669-41.437c-3.041 2.535-6.128 5.34-5.586 6.693.542 1.354 3.37.85 3.84 2.931.312 1.388-4.279 1.613-13.772.677L313.87 319 309 306.839l27.144-3.703c5.43-3.02 10.426-5.065 14.986-6.134 1.284-.037 3.326.43.284 2.965z" fill="#E2B290"/><path d="M234.95 246l17.144 1.142c4.223 38.201 27.222 62.33 78.717 54.162l4.744 14.805c-39.622 15.94-88.242 21.34-96.893-30.83-2.239-13.506-4.007-27.561-3.713-39.279z" fill="#005455"/><path d="M226.477 241l.014.016 25.977 5.95c0 30.381 6.58 53.284 13.088 75.16l.574 1.928.572 1.924.57 1.92.567 1.917.562 1.917c2.051 7.024 3.993 14.041 5.599 21.268h-79c1-12.89 2.389-24.892 4.252-36.113-10.046 23.17-20.635 47.772-32.73 73.367L149.402 388c11.903-63.336 37.028-112.336 75.374-147h1.701z" fill="#007071"/><path d="M214.912 289.26c-1.808 27.84-.744 49.088 3.19 63.74h-14.258c1.914-21.992 5.26-42.799 10.699-62.42z" fill-opacity=".1" fill="#000"/><path d="M254.76 241.263c-7.489 1.93-36.205-12.837-34.703-34.238 1.501-21.4 31.292-16.692 37.086-5.891 5.795 10.801 5.107 38.199-2.383 40.13z" fill="#F5C5A3"/><path d="M244.132 190.62c6.734.578 12.747 2.632 14.451 3.85 0 6.376-1.235 8.268-11.786 8.101-2.593 1.37-4.586 3.727-6.662 6.819.919 12.795 3.349 19.195 7.29 19.195 5.914 0 10.93-3.754 13.525-3.754 1.89 0 1.469 2.367.215 4.121-1.034 1.448-6.071 2.844-6.071 5.088 0 1.154 1.052 1.256 2.075 1.263h.504c.764.002 1.4.044 1.4.576 0 2.202.7 6.342-3.122 6.342-3.867 0-14.956-1.41-16.857-7.15-1.226-3.704-2.019-11.38-2.378-23.027a6 6 0 00-4.908 10.248 90.97 90.97 0 01-4.728 6.12c-6.698-4.02-12.524-15.943-5.976-27.244 1.81-5.536 6.764-8.333 11.603-9.706 3.92-1.64 7.99-1.824 11.425-.841z" fill="#1E0E02"/><path d="M395.539 262.864c9.298 5.587 12.297 17.673 6.697 26.992-5.6 9.32-17.679 12.346-26.977 6.76-9.298-5.588-12.296-17.673-6.697-26.993 5.6-9.32 17.679-12.346 26.977-6.759" fill-opacity=".1" fill="#000"/><path d="M382.555 298.467c-10.72-1.47-17.995-12.15-15.61-22.763 2.409-10.025 12.424-16.245 22.354-14.102 10.46 2.472 15.8 12.512 13.945 22.616-2.872 8.98-10.817 15.497-20.69 14.25m25.281-12.367c.254-.316.452-.702.545-1.18 2.334-12.746-4.99-25.56-18.084-28.456-12.59-2.785-25.465 5.35-28.442 17.9-2.979 12.551 4.85 25.477 17.272 28.543 12.625 3.261 24.912-4.584 28.71-16.807" fill="#073B3B"/><g transform="rotate(31 -333.675 781.916)"><mask id="l" fill="#fff"><use xlink:href="#k"/></mask><path d="M11.932 1.808C8.16 10.704 4.224 19.764.452 28.66c-1.311 3.13 3.444 4.942 4.756 1.977C8.98 21.74 12.916 12.68 16.688 3.785c1.311-3.13-3.444-4.942-4.756-1.977" fill="#073B3B" mask="url(#l)"/></g><path d="M381.249 205.925c.78 0 1.442-.185 1.983-.555.542-.37.813-.873.813-1.511 0-.357-.101-.715-.303-1.072-.604-1.122-1.133-2.028-1.586-2.717-1.386-2.143-2.078-3.788-2.078-4.937 0-.484.126-.982.378-1.492.352-.663.869-.995 1.549-.995.554 0 .931.255 1.133.765.151.358.264.536.34.536.1 0 .151-.306.151-.918 0-.434-.031-.715-.094-.842-.063-.128-.246-.268-.548-.421-.353-.179-.617-.268-.794-.268-.125 0-.516.153-1.17.46-1.109.535-1.789 1.479-2.04 2.831a4.92 4.92 0 00-.114.88c0 .255.164.753.491 1.493.403.918 1.146 2.168 2.229 3.75 1.108 1.684 1.662 2.615 1.662 2.794 0 .204-.138.44-.415.708-.277.268-.58.453-.907.555a2.193 2.193 0 01-.529.076c-.881 0-1.624-.242-2.229-.727-.352-.255-.655-.383-.907-.383-.176 0-.264.077-.264.23 0 .179.126.395.378.65.755.74 1.712 1.11 2.871 1.11zm10.956-.23c.302 0 .49-.063.567-.19.327-.51.239-.766-.265-.766-.302 0-.642-.134-1.02-.402a2.9 2.9 0 01-.869-.937c-.227-.358-.447-.932-.661-1.723-.214-.79-.321-1.403-.321-1.836 0-.409-.063-.74-.189-.995-.1-.205-.151-.574-.151-1.11 0-.153.025-.613.075-1.378l.114-2.105 1.133-.268c1.813-.408 2.72-.752 2.72-1.033 0-.05-.176-.076-.529-.076-.881 0-1.8.089-2.758.268l-.642.114.151-2.717c.126-2.117.19-3.33.19-3.635 0-.562-.127-.855-.379-.88-.251-.052-.428-.026-.528.076-.101.102-.152 1.276-.152 3.52v3.407h-.566c-.454 0-.68.178-.68.535 0 .154.063.294.189.421a.66.66 0 00.49.192c.177 0 .284.108.322.325.038.217.057.772.057 1.665 0 1.326.201 3.202.604 5.625.1.715.315 1.416.642 2.105.328.689.642 1.135.945 1.34.403.306.906.459 1.51.459zm5.516-1.147c.478 0 .717-.409.717-1.225 0-.332.252-2.538.756-6.62.353-3.113 1.108-4.67 2.267-4.67.352 0 .63.103.83.307.152.178.429.268.832.268.327 0 .529-.064.604-.192.026-.025.038-.076.038-.153 0-.23-.415-.51-1.247-.842-.604-.23-1.07-.344-1.397-.344-.378 0-.756.153-1.134.46a3.47 3.47 0 00-.906 1.243c-.202.472-.39 1.193-.567 2.162-.277 1.582-.453 2.373-.529 2.373-.076 0-.151-1.238-.227-3.712-.025-.383-.063-.625-.113-.727-.05-.102-.164-.166-.34-.192h-.113c-.303 0-.454.396-.454 1.187 0 .637.076 1.837.227 3.597.201 2.296.302 4.12.302 5.472 0 .791.02 1.257.057 1.397.038.14.17.21.397.21zm19.267 0c.176 0 .264-.077.264-.23v-.077a.296.296 0 01-.038-.114c-.025-.332-.214-.51-.566-.536-.378-.051-.706-.249-.983-.593-.277-.345-.44-.785-.49-1.32 0-.052-.007-.122-.02-.211a1.789 1.789 0 01-.018-.249c0-1.633.264-3.253.793-4.86.227-.714.34-1.212.34-1.492 0-.179-.038-.281-.113-.307-.101-.025-.252-.242-.454-.65-.226-.434-.579-.65-1.058-.65-.277 0-.579.101-.906.305-2.191 1.48-3.891 3.228-5.1 5.243-.957 1.557-1.436 2.909-1.436 4.057 0 .306.038.574.113.803.076.205.284.396.624.574.34.179.673.268 1 .268a.971.971 0 00.303-.038c.403-.102 1.033-.65 1.889-1.645 1.763-2.093 2.645-3.33 2.645-3.713 0-.204.062-.306.188-.306.076 0 .114.255.114.766 0 .408-.013.752-.038 1.033-.05.816-.076 1.276-.076 1.378 0 .433.114.842.34 1.224.479.715 1.172 1.136 2.078 1.263.353.051.554.077.605.077zm-8.047-1.187c-.378 0-.567-.306-.567-.918 0-.561.164-1.174.491-1.837.328-.663.491-1.059.491-1.186l.006-.044c.044-.209.376-.698.996-1.468.667-.83 1.24-1.435 1.718-1.818 1.386-1.148 2.242-1.722 2.57-1.722.2 0 .302.179.302.536 0 .561-.435 1.55-1.304 2.966a26.303 26.303 0 01-2.852 3.846c-.982 1.097-1.6 1.645-1.851 1.645zm16.51 2.335c.301 0 .49-.064.566-.192.327-.51.24-.765-.265-.765-.302 0-.642-.134-1.02-.402a2.9 2.9 0 01-.869-.937c-.226-.358-.447-.932-.66-1.723-.215-.79-.322-1.403-.322-1.836 0-.409-.063-.74-.189-.995-.1-.205-.15-.574-.15-1.11 0-.153.024-.613.075-1.378l.113-2.105 1.133-.268c1.814-.408 2.72-.752 2.72-1.033 0-.05-.176-.076-.528-.076-.882 0-1.801.089-2.758.268l-.642.114.15-2.717c.127-2.117.19-3.33.19-3.635 0-.562-.126-.855-.378-.88-.252-.052-.428-.026-.53.076-.1.102-.15 1.276-.15 3.52v3.407h-.567c-.453 0-.68.178-.68.535 0 .154.063.294.189.421a.66.66 0 00.491.192c.176 0 .283.108.321.325.038.217.057.772.057 1.665 0 1.326.201 3.202.604 5.625.101.715.315 1.416.643 2.105.327.689.642 1.135.944 1.34.403.306.907.459 1.511.459zm9.18 1.148c.1 0 .276-.026.528-.077.353-.102.813-.472 1.38-1.11.566-.637.85-1.084.85-1.339 0-.102-.051-.153-.152-.153-.126 0-.466.255-1.02.765-.58.562-1.108.842-1.587.842-.428 0-.843-.242-1.246-.727-.403-.434-.643-.804-.718-1.11-.1-.331-.24-.586-.416-.765-.15-.204-.252-.919-.302-2.143l-.075-1.837h4.57l-.113-1.454c-.1-1.02-.201-1.671-.302-1.952a5.19 5.19 0 00-.774-1.34c-.34-.433-.598-.65-.775-.65-.226 0-.377-.064-.453-.191-.076-.153-.29-.23-.642-.23-.655 0-1.121.166-1.398.498-.605.612-1.02 1.709-1.247 3.29-.075.613-.214.97-.415 1.072-.177.077-.265.198-.265.364 0 .166.1.287.302.363.177.077.265.396.265.957 0 .536.132 1.327.397 2.373.264 1.046.535 1.837.812 2.372.755 1.455 1.687 2.182 2.795 2.182zm-.453-8.956h-.862c-.63-.003-1.035-.022-1.217-.057-.201-.038-.302-.134-.302-.287 0-.56.164-1.224.491-1.99.328-.765.73-1.148 1.209-1.148.277 0 .567.166.869.498.327.357.554.842.68 1.454.151.714.227 1.084.227 1.11 0 .204-.082.325-.246.363-.164.039-.51.058-1.039.058l.19-.001zm10.35 7.54c.303 0 .655-.115 1.058-.345.554-.306.844-.6.87-.88a.62.62 0 01.018-.153.53.53 0 00.019-.115c0-.102-.038-.153-.113-.153-.05 0-.303.128-.756.383-.302.204-.529.306-.68.306-.151 0-.327-.09-.529-.268-.554-.408-.907-.816-1.058-1.224-.15-.409-.226-1.174-.226-2.297.025-1.887.34-3.635.944-5.242.605-1.608 1.26-2.411 1.965-2.411.15 0 .29-.051.415-.153.126-.102.19-.217.19-.345 0-.127-.064-.23-.19-.306a1.314 1.314 0 00-.718-.191c-.503 0-.906.178-1.209.535-1.183 1.327-2.014 3.61-2.493 6.85-.1.817-.151 1.391-.151 1.723 0 1.505.378 2.64 1.133 3.406.58.586 1.083.88 1.511.88zm-.604 8.572c.63 0 1.184-.179 1.662-.536.353-.28.73-.727 1.134-1.34.403-.611.617-1.083.642-1.415.126-.689.227-1.225.302-1.607.151-.587.24-3.445.265-8.573 0-1.25.012-2.506.037-3.77a1362.007 1362.007 0 00.076-4.151c0-.23-.1-.345-.302-.345-.227 0-.39.115-.491.345-.303.612-.454 2.168-.454 4.669v.445c.005 1.459.03 2.675.076 3.65.05 1.02.075 2.283.075 3.788 0 1.939-.15 3.572-.453 4.898-.277 1.148-.756 1.94-1.436 2.373-.327.204-.73.306-1.209.306-1.108 0-1.826-.306-2.153-.918-.126-.204-.29-.268-.491-.192-.1.051-.189.153-.265.306-.125.281-.075.421.152.421.1 0 .226.166.377.498.126.332.422.606.888.823.466.217.989.325 1.568.325zm9.785-2.41c.201 0 .377-.511.529-1.532.377-2.143 1.083-4.388 2.115-6.735.378-.79.617-1.403.718-1.837.05-.255.189-.663.416-1.224.226-.562.472-1.168.736-1.818a28.2 28.2 0 00.472-1.206c.227-.612.353-.944.378-.995.126-.204.479-1.084 1.058-2.64.58-1.557.869-2.424.869-2.603 0-.23-.076-.344-.227-.344-.327 0-.604.242-.83.727-.278.612-.668 1.646-1.172 3.1-1.335 3.852-2.09 5.779-2.267 5.779-.1 0-.15-.077-.15-.23l-.004-.043c-.058-.426-.9-1.955-2.528-4.588a9.292 9.292 0 01-.302-.535 20.433 20.433 0 00-.34-.613c-.025-.025-.139-.23-.34-.612-.202-.383-.384-.67-.548-.861-.164-.191-.346-.3-.548-.325h-.113c-.202 0-.302.102-.302.306 0 .51.774 1.97 2.323 4.382 1.549 2.41 2.323 3.795 2.323 4.152 0 .408-.15.956-.453 1.645-.68 1.659-1.297 3.585-1.851 5.779a7.797 7.797 0 00-.227 1.875c0 .663.088.995.265.995z" fill="#4D4D4C" fill-rule="nonzero"/></g></svg>