<?xml version="1.0" encoding="utf-8"?>
<!-- Generator: Adobe Illustrator 15.0.0, SVG Export Plug-In  -->
<!DOCTYPE svg PUBLIC "-//W3C//DTD SVG 1.1//EN" "http://www.w3.org/Graphics/SVG/1.1/DTD/svg11.dtd" [
	<!ENTITY ns_flows "http://ns.adobe.com/Flows/1.0/">
]>
<svg version="1.1"
	 xmlns="http://www.w3.org/2000/svg" xmlns:xlink="http://www.w3.org/1999/xlink" xmlns:a="http://ns.adobe.com/AdobeSVGViewerExtensions/3.0/"
	 x="0px" y="0px" width="1000px" height="1000px" viewBox="-98.5 -76.6 1000 1000" enable-background="new -98.5 -76.6 1000 1000"
	 xml:space="preserve">
<defs>
</defs>
<path fill="#F4F7FA" d="M614.3,50.5c27.2,38.9-4.7,101.9,35.6,131.2c39.2,28.5,87.4-18.2,124.4,6.3c54.8,36.3,44.8,202.7-35.4,306
	c-24.1,31.1-44.3,43.2-53.2,78.3C666.6,647.8,734,692.7,721.2,730c-28.9,84-472.7,154.6-650.8-98c-83.2-118-95.6-288.3-21.3-417.7
	C183.4-19.5,553.4-36.8,614.3,50.5z"/>
<path fill="#AABBCC" d="M131.2,528.6l-6.5-0.1c-0.5-3-1.3-5.8-2.3-8.6l5.7-3.2c1.5-0.9,2.1-2.8,1.2-4.4l-5.6-9.7
	c-0.9-1.6-2.9-2.1-4.4-1.2l-5.7,3.2c-1.9-2.3-4-4.4-6.3-6.3l3.3-5.7c0.9-1.5,0.4-3.5-1.2-4.4l-9.8-5.8c-1.6-0.9-3.6-0.4-4.5,1.1
	l-3.4,5.7c-2.8-1-5.7-1.8-8.7-2.4V480c0-1.8-1.5-3.3-3.3-3.3l-11.4-0.2c-1.8,0-3.3,1.4-3.3,3.2v6.7c-3,0.5-5.9,1.2-8.7,2.2l-3.4-5.9
	c-0.9-1.6-2.9-2.2-4.5-1.3l-10,5.5c-1.6,0.9-2.1,2.9-1.2,4.5l3.4,5.9c-2.3,1.9-4.5,4-6.5,6.3l-5.9-3.4c-1.6-0.9-3.6-0.4-4.6,1.1
	l-5.8,9.8c-0.9,1.6-0.4,3.6,1.2,4.5l5.9,3.4c-1,2.8-1.8,5.7-2.4,8.7l-6.8-0.1c-1.9,0-3.4,1.4-3.4,3.3v11.4c0,1.8,1.5,3.3,3.4,3.3
	l6.7,0c0.5,3,1.3,6,2.4,8.8l-5.8,3.3c-1.6,0.9-2.2,2.9-1.2,4.5l5.8,9.9c0.9,1.6,3,2.1,4.6,1.2l5.7-3.2c2,2.3,4.2,4.5,6.5,6.4
	l-3.3,5.6c-0.9,1.6-0.4,3.6,1.2,4.5l10,5.6c1.6,0.9,3.6,0.4,4.5-1.2l3.3-5.6c2.9,1,5.8,1.8,8.9,2.3v6.4c0,1.8,1.5,3.3,3.3,3.3
	l11.4,0c1.8,0,3.3-1.5,3.3-3.3v-6.4c3-0.5,6-1.3,8.8-2.3l3.2,5.5c0.9,1.6,2.9,2.1,4.5,1.2l9.8-5.6c1.6-0.9,2.1-2.9,1.2-4.4l-3.2-5.6
	c2.3-1.9,4.4-4.1,6.4-6.4l5.6,3.2c1.6,0.9,3.5,0.4,4.4-1.2l5.6-9.7c0.9-1.5,0.4-3.5-1.2-4.4l-5.6-3.2c1-2.8,1.8-5.7,2.3-8.6l6.5,0
	c1.8,0,3.2-1.4,3.2-3.2v-11.2C134.5,530,133,528.6,131.2,528.6z M74.1,504.2c18.3,0.2,33.1,15.1,33.1,33.2s-14.8,32.8-33.1,32.7
	c-18.4,0-33.5-14.9-33.5-33.2S55.6,503.9,74.1,504.2z"/>
<path fill="#AABBCC" d="M262.5,316l-10.3-0.3c-0.8-4.6-2-9-3.6-13.3l8.9-4.8c2.4-1.3,3.3-4.3,1.9-6.7l-8.8-15.1
	c-1.4-2.4-4.5-3.3-7-2.1l-9.1,4.8c-3-3.6-6.4-6.9-10-10l5.3-8.7c1.4-2.3,0.6-5.4-1.9-6.9l-15.4-9.2c-2.5-1.5-5.6-0.8-7.1,1.6
	l-5.3,8.7c-4.4-1.7-9-3-13.7-4v-10.3c0-2.8-2.3-5.1-5.2-5.2l-18.1-0.7c-2.9-0.1-5.3,2-5.3,4.8V249c-4.8,0.6-9.5,1.6-13.9,3l-5.4-9.2
	c-1.5-2.5-4.7-3.4-7.3-2.1l-15.9,8.2c-2.6,1.3-3.4,4.4-2,6.9l5.5,9.2c-3.7,2.8-7.2,6-10.3,9.5l-9.5-5.5c-2.6-1.5-5.9-0.8-7.3,1.6
	l-9.3,15c-1.5,2.4-0.6,5.5,2,7l9.4,5.4c-1.7,4.3-3,8.8-3.8,13.4L78.9,311c-3-0.1-5.4,2.1-5.4,5v17.7c0,2.8,2.4,5.2,5.4,5.2l10.8,0.2
	c0.9,4.7,2.1,9.3,3.8,13.7l-9.3,4.9c-2.6,1.4-3.5,4.5-2,6.9l9.3,15.4c1.5,2.5,4.8,3.4,7.3,2l9.2-4.9c3.2,3.7,6.7,7,10.4,10.1
	l-5.3,8.6c-1.5,2.4-0.6,5.5,2,7l15.9,9c2.5,1.4,5.8,0.6,7.3-1.8l5.2-8.5c4.6,1.7,9.3,2.9,14.2,3.8v9.9c0,2.8,2.4,5.1,5.3,5.1
	l18.1,0.2c2.9,0,5.2-2.2,5.2-5v-9.9c4.8-0.7,9.5-1.9,14-3.4l5.1,8.6c1.4,2.4,4.6,3.3,7.1,1.9l15.4-8.4c2.5-1.3,3.3-4.4,1.9-6.8
	l-5.1-8.6c3.6-2.9,7-6.1,10.1-9.6l8.8,5.1c2.5,1.4,5.6,0.6,7-1.7l8.8-14.7c1.4-2.3,0.6-5.4-1.9-6.8l-8.8-5.1
	c1.6-4.2,2.8-8.6,3.6-13.2l10.2,0.2c2.8,0.1,5.1-2.1,5.1-4.8v-17.1C267.6,318.4,265.3,316.1,262.5,316z M172,276.7
	c29.1,1,52.5,24.3,52.5,52.2s-23.4,50-52.5,49.5c-29.4-0.5-53.4-23.9-53.4-52.2C118.6,297.9,142.7,275.7,172,276.7z"/>
<path opacity="0.74" fill="#FFFFFF" d="M172,173.3C82.1,168.8,7.3,235.8,7.3,323.1c0,87.3,74.8,158.1,164.7,158.2
	c87.4,0.1,156.5-67.1,156.5-150.1S259.4,177.6,172,173.3z M172,444.5C103.9,444,47.5,390.1,47.5,324.1s56.4-117,124.5-114.1
	c66.7,2.9,119.8,56.7,119.8,120.2S238.8,444.9,172,444.5z"/>
<path fill="#D8DEE8" d="M62.8,381.4l-34.6,18.3c13.5,23.1,32.8,42.6,55.9,56.8l19.7-32.2C86.8,413.4,72.7,398.7,62.8,381.4z"/>
<path fill="#D8DEE8" d="M270.6,263.7l32.2-16.9C289.5,227,271.8,210,251,197.4l-18.8,30.8C247.5,237.3,260.6,249.5,270.6,263.7z"/>
<path fill="#D8DEE8" d="M70.3,256.5c10.6-13.9,24.4-25.4,40.4-33.4L91,190c-22.1,11-41,27-55.3,46.4L70.3,256.5z"/>
<path fill="#D8DEE8" d="M47.5,324.1c0-1.4,0.1-2.8,0.1-4.2l-40.2-1c0,1.4-0.1,2.8-0.1,4.2c0,25.1,6.3,48.9,17.4,70.2L59.4,375
	C51.8,359.5,47.5,342.2,47.5,324.1z"/>
<path opacity="0.25" fill="#AABBCC" d="M291.8,330.3c0,17.4-4,33.8-11.1,48.5l32,18.6c10.1-19.9,15.8-42.3,15.8-66.2
	c0-1.3,0-2.7-0.1-4l-36.8-1C291.8,327.6,291.8,328.9,291.8,330.3z"/>
<path opacity="0.25" fill="#AABBCC" d="M277.6,384.9c-9.2,16.4-22.6,30.4-38.7,40.7l18.8,31.7c21.7-13.5,39.6-32,52-53.8
	L277.6,384.9z"/>
<path fill="#D8DEE8" d="M274.4,269.6c9.2,14.9,15.1,31.8,16.8,49.8l36.9,1c-1.8-24.4-9.4-47.4-21.7-67.7L274.4,269.6z"/>
<path opacity="0.25" fill="#AABBCC" d="M168.4,444.4c-21.1-0.7-41-6.6-58.3-16.3l-19.6,32.2c23.2,12.9,49.8,20.4,78,21.1V444.4z"/>
<path opacity="0.25" fill="#AABBCC" d="M232.8,429.2c-16.8,9.3-36.2,14.8-57.1,15.3v36.9c27.8-0.6,53.7-8,75.9-20.4L232.8,429.2z"/>
<path fill="#D8DEE8" d="M117.2,220c15.6-6.7,32.9-10.3,51.2-10v-36.9c-25.3-0.7-49.4,4.2-70.8,13.8L117.2,220z"/>
<path fill="#D8DEE8" d="M48.1,312.8c1.9-18.6,8.2-35.7,18.1-50.5l-34.6-20c-13.4,20.3-21.9,43.9-23.8,69.5L48.1,312.8z"/>
<path fill="#D8DEE8" d="M175.7,210.3c18.1,1.3,35.1,6.3,50.2,14.3l18.8-30.8c-20.6-11.3-44.1-18.5-69.1-20.3V210.3z"/>
<path fill="#D8DEE8" d="M400.9,101.1l-5,0c-0.4-2.2-1-4.3-1.8-6.4l4.4-2.5c1.2-0.7,1.6-2.1,0.9-3.3l-4.3-7.1
	c-0.7-1.1-2.2-1.5-3.4-0.9l-4.4,2.5c-1.5-1.7-3.1-3.2-4.8-4.6l2.6-4.3c0.7-1.2,0.3-2.6-0.9-3.3l-7.5-4.1c-1.2-0.7-2.7-0.3-3.4,0.9
	l-2.6,4.3c-2.1-0.7-4.3-1.3-6.6-1.7v-5c0-1.3-1.1-2.4-2.5-2.4l-8.7,0c-1.4,0-2.5,1.1-2.5,2.4v5c-2.3,0.4-4.5,1-6.7,1.7l-2.6-4.3
	c-0.7-1.2-2.3-1.5-3.5-0.9l-7.6,4.2c-1.2,0.7-1.6,2.2-0.9,3.3l2.6,4.3c-1.8,1.4-3.4,3-4.9,4.7l-4.5-2.5c-1.2-0.7-2.8-0.3-3.5,0.9
	l-4.4,7.3c-0.7,1.2-0.3,2.7,0.9,3.3l4.5,2.4c-0.8,2.1-1.4,4.2-1.8,6.5l-5.2,0c-1.4,0-2.6,1.1-2.6,2.5v8.4c0,1.3,1.1,2.4,2.6,2.4
	l5.1-0.1c0.4,2.2,1,4.4,1.8,6.5l-4.4,2.5c-1.2,0.7-1.6,2.2-0.9,3.3l4.4,7.2c0.7,1.2,2.3,1.5,3.5,0.8l4.4-2.5c1.5,1.7,3.2,3.3,5,4.7
	l-2.5,4.2c-0.7,1.2-0.3,2.6,0.9,3.3l7.6,4.1c1.2,0.6,2.8,0.2,3.5-0.9l2.5-4.2c2.2,0.7,4.5,1.3,6.8,1.6v4.8c0,1.3,1.1,2.4,2.5,2.4
	l8.7-0.1c1.4,0,2.5-1.1,2.5-2.5v-4.7c2.3-0.4,4.6-1,6.7-1.8l2.5,4.1c0.7,1.1,2.2,1.5,3.4,0.8l7.5-4.3c1.2-0.7,1.6-2.2,0.9-3.3
	l-2.5-4.1c1.8-1.5,3.4-3.1,4.9-4.8l4.3,2.3c1.2,0.6,2.7,0.2,3.4-0.9l4.3-7.2c0.7-1.2,0.3-2.6-0.9-3.3l-4.3-2.3
	c0.8-2.1,1.4-4.2,1.8-6.4l5-0.1c1.4,0,2.5-1.1,2.5-2.4v-8.3C403.4,102.1,402.3,101.1,400.9,101.1z M357.1,83.7
	c14-0.1,25.4,10.7,25.4,24.1c0,13.4-11.3,24.4-25.4,24.6c-14.1,0.2-25.6-10.6-25.6-24.1C331.5,94.8,343,83.8,357.1,83.7z"/>
<path fill="#AABBCC" d="M748.4,405.7c8.2,4.2,18.6,0.3,23.1-8.6s1.5-19.6-6.7-23.7c-0.4-0.2-0.9-0.4-1.3-0.6
	c1.5-4.9,2.7-9.9,3.5-14.9c0.5,0,0.9,0,1.4-0.1c9.4-0.8,16.9-9.5,16.7-19.3c-0.2-9.8-8-17.1-17.4-16.3c-0.5,0-1,0.1-1.5,0.2
	c-1-4.9-2.3-9.6-4-14.2c0.4-0.3,0.9-0.5,1.3-0.8c8-5.6,10.6-16.8,5.7-24.9c-4.9-8.1-15.4-10.1-23.4-4.4c-0.4,0.3-0.8,0.6-1.2,0.9
	c-3.2-3.5-6.7-6.8-10.4-9.7c0.3-0.4,0.5-0.9,0.8-1.3c4.5-8.9,10.5-18.7,2.1-22.7c-19.2-9.4-27.5-1.4-32,7.6
	c-0.2,0.5-0.4,0.9-0.6,1.4c-4.6-1.3-9.3-2.2-14-2.7c0-0.5,0.1-1,0-1.5c-0.2-9.8,2.7-15.1-6.7-15.3c-20.6-0.4-27.5,8.5-27.3,18.4
	c0,0.5,0.1,1,0.1,1.5c-4.7,1.3-9.4,3.1-13.9,5.1c-0.2-0.4-0.4-0.9-0.7-1.3c-4.9-8.1-15.3-10.1-23.4-4.4c-8,5.6-10.6,16.8-5.7,24.9
	c0.2,0.4,0.5,0.8,0.8,1.2c-3.6,3.6-6.9,7.4-10,11.6c-0.4-0.3-0.8-0.5-1.2-0.7c-8.2-4.2-18.6-0.3-23.1,8.6
	c-4.5,8.9-1.5,19.6,6.7,23.7c0.4,0.2,0.9,0.4,1.3,0.6c-1.5,4.9-2.7,9.9-3.5,14.9c-0.5,0-0.9,0-1.4,0.1c-9.4,0.8-16.9,9.5-16.7,19.3
	c0.2,9.8,8,17.1,17.4,16.3c0.5,0,1-0.1,1.5-0.2c1,4.9,2.3,9.6,4,14.2c-0.4,0.3-0.9,0.5-1.3,0.8c-8,5.6-10.6,16.8-5.7,24.9
	c4.9,8.1,21,11.8,29.1,6.2c0.4-0.3-4.9-2.4-4.5-2.7c3.2,3.5,6.7,6.8,10.4,9.7c-0.3,0.4-0.5,0.9-0.8,1.3c-4.5,8.9-1.5,19.6,6.7,23.7
	c8.2,4.2,18.6,0.3,23.1-8.6c0.2-0.5,0.4-0.9,0.6-1.4c4.6,1.3,9.3,2.2,14,2.7c0,0.5-0.1,1,0,1.5c0.2,9.8,8,17.1,17.4,16.3
	s16.9-9.5,16.7-19.3c0-0.5-0.1-1-0.1-1.5c4.7-1.3,9.4-3.1,13.9-5.1c0.2,0.4,0.4,0.9,0.7,1.3c4.9,8.1,15.3,10.1,23.4,4.4
	s10.6-16.8,5.7-24.9c-0.3-0.4-0.5-0.8-0.8-1.2c3.6-3.6,6.9-7.4,10-11.6C747.6,405.3,748,405.5,748.4,405.7z M645.7,407.1
	c-29.9-15.2-40.9-53.8-24.4-86.2s54.1-46.4,84-31.2c29.9,15.2,40.9,53.8,24.4,86.2S675.6,422.3,645.7,407.1z"/>
<path fill="#AABBCC" d="M768.4,357.9c9.4-0.8,16.9-9.5,16.7-19.3c-0.2-9.8-8-17.1-17.4-16.3c-0.5,0-1,0.1-1.5,0.2
	c-1-4.9-2.3-9.6-4-14.2c0.4-0.3,0.9-0.5,1.3-0.8c8-5.6,18-19.3,12.3-26.8c-10.8-14.3-21.9-8.1-30-2.5c-0.4,0.3-0.8,0.6-1.2,0.9
	c-3.2-3.5-6.7-6.8-10.4-9.7c0.3-0.4,0.5-0.9,0.8-1.3c2.5-4.9,2.7-10.2,1.1-14.8c-7.8,13.7-15.4,27.4-23,41.2
	c23.9,17.5,31.5,52,16.6,81.4c-12.7,24.9-37.8,38.9-62.4,37.2c-1.1,2.8-2.2,5.7-3.3,8.5c-3.2,7.6-6.8,15.1-10.4,22.6
	c2.3,0.4,4.6,0.8,6.9,1c0,0.5-0.1,1,0,1.5c0.2,9.8,6.2,18.2,23.2,17.3c9.4-0.5,11.1-10.5,10.9-20.3c0-0.5-0.1-1-0.1-1.5
	c4.7-1.3,9.4-3.1,13.9-5.1c0.2,0.4,0.4,0.9,0.7,1.3c4.9,8.1,21.8,11.5,29.8,5.9c8-5.6,4.2-18.2-0.7-26.3c-0.3-0.4-0.5-0.8-0.8-1.2
	c3.6-3.6,6.9-7.4,10-11.6c0.4,0.3,0.8,0.5,1.2,0.7c8.2,4.2,18.6,0.3,23.1-8.6c4.5-8.9,1.5-19.6-6.7-23.7c-0.4-0.2-0.9-0.4-1.3-0.6
	c1.5-4.9,2.7-9.9,3.5-14.9C767.5,357.9,768,357.9,768.4,357.9z"/>
<path fill="#D8DEE8" d="M757.3,406.8c8.2,4.2,18.6,0.3,23.1-8.6c4.5-8.9,1.5-19.6-6.7-23.7c-0.4-0.2-0.9-0.4-1.3-0.6
	c1.5-4.9,2.7-9.9,3.5-14.9c0.5,0,0.9,0,1.4-0.1c9.4-0.8,16.9-9.5,16.7-19.3c-0.2-9.8-8-17.1-17.4-16.3c-0.5,0-1,0.1-1.5,0.2
	c-1-4.9-2.3-9.6-4-14.2c0.4-0.3,0.9-0.5,1.3-0.8c8-5.6,10.6-16.8,5.7-24.9c-4.9-8.1-15.4-10.1-23.4-4.4c-0.4,0.3-0.8,0.6-1.2,0.9
	c-3.2-3.5-6.7-6.8-10.4-9.7c0.3-0.4,0.5-0.9,0.8-1.3c4.5-8.9,1.5-19.6-6.7-23.7c-8.2-4.2-18.6-0.3-23.1,8.6
	c-0.2,0.5-0.4,0.9-0.6,1.4c-4.6-1.3-9.3-2.2-14-2.7c0-0.5,0.1-1,0-1.5c-0.2-9.8-8-17.1-17.4-16.3c-9.4,0.8-16.9,9.5-16.7,19.3
	c0,0.5,0.1,1,0.1,1.5c-4.7,1.3-9.4,3.1-13.9,5.1c-0.2-0.4-0.4-0.9-0.7-1.3c-4.9-8.1-15.3-10.1-23.4-4.4c-8,5.6-10.6,16.8-5.7,24.9
	c0.3,0.4,0.5,0.8,0.8,1.2c-3.6,3.6-6.9,7.4-10,11.6c-0.4-0.3-0.8-0.5-1.2-0.7c-8.2-4.2-18.6-0.3-23.1,8.6
	c-4.5,8.9-1.5,19.6,6.7,23.7c0.4,0.2,0.9,0.4,1.3,0.6c-1.5,4.9-2.7,9.9-3.5,14.9c-0.5,0-0.9,0-1.4,0.1c-9.4,0.8-16.9,9.5-16.7,19.3
	c0.2,9.8,8,17.1,17.4,16.3c0.5,0,1-0.1,1.5-0.2c1,4.9,2.3,9.6,4,14.2c-0.4,0.3-0.9,0.5-1.3,0.8c-8,5.6-10.6,16.8-5.7,24.9
	c4.9,8.1,15.4,10.1,23.4,4.4c0.4-0.3,0.8-0.6,1.2-0.9c3.2,3.5,6.7,6.8,10.4,9.7c-0.3,0.4-0.5,0.9-0.8,1.3
	c-4.5,8.9-1.5,19.6,6.7,23.7c8.2,4.2,18.6,0.3,23.1-8.6c0.2-0.5,0.4-0.9,0.6-1.4c4.6,1.3,9.3,2.2,14,2.7c0,0.5-0.1,1,0,1.5
	c0.2,9.8,8,17.1,17.4,16.3c9.4-0.8,16.9-9.5,16.7-19.3c0-0.5-0.1-1-0.1-1.5c4.7-1.3,9.4-3.1,13.9-5.1c0.2,0.4,0.4,0.9,0.7,1.3
	c4.9,8.1,15.4,10.1,23.4,4.4c8-5.6,10.6-16.8,5.7-24.9c-0.2-0.4-0.5-0.8-0.8-1.2c3.6-3.6,6.9-7.4,10-11.6
	C756.5,406.3,756.9,406.5,757.3,406.8z M654.5,408.1c-29.9-15.2-40.9-53.8-24.4-86.2c16.5-32.4,54.1-46.4,84-31.2
	c29.9,15.2,40.9,53.8,24.4,86.2C722.1,409.3,684.5,423.3,654.5,408.1z"/>
<linearGradient id="SVGID_1_" gradientUnits="userSpaceOnUse" x1="-2301.2188" y1="-4.6094" x2="-2145.3838" y2="-4.6094" gradientTransform="matrix(-0.7456 -0.6664 -0.6664 0.7456 -1158.5233 -958.2381)">
	<stop  offset="0" style="stop-color:#444B8C"/>
	<stop  offset="0.9964" style="stop-color:#26264F"/>
</linearGradient>
<path fill="url(#SVGID_1_)" d="M518,418.5c0,0,64.2,81.4-1.9,202.2c-6.2,11.2-22.2,11.5-28.8,0.5l-41.7-70.2
	c-6.7-11.3-8.3-24.8-4.5-37.3l19.7-64.3L518,418.5z"/>
<linearGradient id="SVGID_2_" gradientUnits="userSpaceOnUse" x1="-1993.0972" y1="-4.6157" x2="-1837.2588" y2="-4.6157" gradientTransform="matrix(-0.7456 -0.6664 -0.6664 0.7456 -1158.5233 -958.2381)">
	<stop  offset="0" style="stop-color:#444B8C"/>
	<stop  offset="0.9964" style="stop-color:#26264F"/>
</linearGradient>
<path fill="url(#SVGID_2_)" d="M371.6,287.6c0,0-88.1-54.7-200.7,24.4c-10.5,7.4-8.9,23.4,2.7,28.7l74.4,33.6
	c11.9,5.4,25.6,5.5,37.6,0.3l61.7-26.8L371.6,287.6z"/>
<linearGradient id="SVGID_3_" gradientUnits="userSpaceOnUse" x1="-2301.2188" y1="-15.5732" x2="-2145.3838" y2="-15.5732" gradientTransform="matrix(-0.7456 -0.6664 -0.6664 0.7456 -1158.5233 -958.2381)">
	<stop  offset="0" style="stop-color:#AA80F9"/>
	<stop  offset="0.9964" style="stop-color:#6165D7"/>
</linearGradient>
<path fill="url(#SVGID_3_)" d="M525.3,410.3c0,0,64.2,81.4-1.9,202.2c-6.2,11.2-22.2,11.5-28.8,0.5l-41.7-70.2
	c-6.7-11.3-8.3-24.8-4.5-37.3l19.7-64.3L525.3,410.3z"/>
<linearGradient id="SVGID_4_" gradientUnits="userSpaceOnUse" x1="54.0786" y1="570.166" x2="327.286" y2="430.7742" gradientTransform="matrix(0.9857 0.1683 -0.1683 0.9857 270.2633 -239.8156)">
	<stop  offset="0" style="stop-color:#AA80F9"/>
	<stop  offset="0.9964" style="stop-color:#6165D7"/>
</linearGradient>
<path fill="url(#SVGID_4_)" d="M378.9,279.4c0,0-88.1-54.7-200.7,24.4c-10.5,7.4-8.9,23.4,2.7,28.7l74.4,33.6
	c11.9,5.4,25.6,5.5,37.6,0.3l61.7-26.8L378.9,279.4z"/>
<linearGradient id="SVGID_5_" gradientUnits="userSpaceOnUse" x1="-2160.1387" y1="-118.6929" x2="-1827.1527" y2="-469.1504" gradientTransform="matrix(-0.7456 -0.6664 -0.6664 0.7456 -1158.5233 -958.2381)">
	<stop  offset="0" style="stop-color:#FFC444"/>
	<stop  offset="0.9964" style="stop-color:#F36F56"/>
</linearGradient>
<path fill="url(#SVGID_5_)" d="M462.3,89.1c102.3-91.7,260.2-47,260.2-46.8c0.2,0.1,62.3,151.9-17.4,263.8
	c-72.3,101.5-223.7,169.4-252.7,181.8c-3.1,1.3-8.2,3.1-9.8,0.1c-31.7-57.9-76.6-95.9-131.9-117.8c-3.1-1.2-1.8-6.3-0.8-9.5
	C318.8,330.9,369.3,172.4,462.3,89.1z"/>
<linearGradient id="SVGID_6_" gradientUnits="userSpaceOnUse" x1="-2187.1504" y1="-144.3569" x2="-1854.1639" y2="-494.8151" gradientTransform="matrix(-0.7456 -0.6664 -0.6664 0.7456 -1158.5233 -958.2381)">
	<stop  offset="0" style="stop-color:#FFC444"/>
	<stop  offset="0.9964" style="stop-color:#F36F56"/>
</linearGradient>
<path fill="url(#SVGID_6_)" d="M515.7,240.2c57.2-50.9,106.6-25.7,161.6-69.7c20.1-16.1,42.6-42.7,57.2-90.2
	c13.1,52.2,25.7,148.5-29.4,225.9c-72.3,101.5-223.7,169.4-252.7,181.8c-3.1,1.3-8.2,3.1-9.8,0.1c-16-29.2-35.4-53.4-57.8-73
	c21-10.9,36.4-23.5,48-35.7C479.4,329.9,463.6,286.6,515.7,240.2z"/>
<linearGradient id="SVGID_7_" gradientUnits="userSpaceOnUse" x1="-2206.6826" y1="-442.3721" x2="-1931.8125" y2="-442.3721" gradientTransform="matrix(-0.7456 -0.6664 -0.6664 0.7456 -1158.5233 -958.2381)">
	<stop  offset="0" style="stop-color:#AA80F9"/>
	<stop  offset="0.9964" style="stop-color:#6165D7"/>
</linearGradient>
<path fill="url(#SVGID_7_)" d="M654.1,118.9C618.6,87.2,574.4,57.8,534,47c79.3-28.2,163.1-11.1,183.8-6c3.1,0.8,5.5,3,6.6,5.9
	c7.4,20,33.7,101.3,14.5,183.3C726.3,195.4,689.5,150.6,654.1,118.9z"/>
<linearGradient id="SVGID_8_" gradientUnits="userSpaceOnUse" x1="-2169.3071" y1="-391.5156" x2="-2044.5502" y2="-522.8185" gradientTransform="matrix(-0.7456 -0.6664 -0.6664 0.7456 -1158.5233 -958.2381)">
	<stop  offset="0" style="stop-color:#AA80F9"/>
	<stop  offset="0.9964" style="stop-color:#6165D7"/>
</linearGradient>
<path opacity="0.3" fill="url(#SVGID_8_)" d="M734.5,80.3c0.1,0.2,0.1,0.5,0.2,0.7c0.1,0.4,0.2,0.8,0.3,1.3c0.1,0.4,0.2,0.8,0.3,1.3
	c0.1,0.4,0.2,0.8,0.3,1.2c0.1,0.5,0.2,0.9,0.3,1.4c0.1,0.4,0.2,0.8,0.3,1.2c0.1,0.5,0.2,1,0.3,1.5c0.1,0.4,0.2,0.8,0.3,1.1
	c0.1,0.5,0.2,1,0.3,1.6c0.1,0.4,0.2,0.7,0.2,1.1c0.1,0.5,0.2,1.1,0.4,1.6c0.1,0.4,0.2,0.7,0.2,1.1c0.1,0.6,0.2,1.2,0.4,1.7
	c0.1,0.4,0.1,0.7,0.2,1.1c0.1,0.6,0.2,1.2,0.4,1.8c0.1,0.3,0.1,0.7,0.2,1c0.1,0.6,0.2,1.3,0.4,1.9c0.1,0.3,0.1,0.7,0.2,1
	c0.1,0.7,0.2,1.3,0.4,2c0.1,0.3,0.1,0.6,0.2,1c0.1,0.7,0.2,1.4,0.4,2c0.1,0.3,0.1,0.6,0.2,0.9c0.1,0.7,0.2,1.4,0.4,2.1
	c0,0.3,0.1,0.6,0.1,0.9c0.1,0.7,0.2,1.5,0.3,2.2c0,0.3,0.1,0.6,0.1,0.9c0.1,0.7,0.2,1.5,0.3,2.2c0,0.3,0.1,0.6,0.1,0.9
	c0.1,0.8,0.2,1.5,0.3,2.3c0,0.3,0.1,0.6,0.1,0.8c0.1,0.8,0.2,1.6,0.3,2.4c0,0.3,0.1,0.5,0.1,0.8c0.1,0.8,0.2,1.6,0.3,2.4
	c0,0.3,0.1,0.5,0.1,0.8c0.1,0.8,0.2,1.7,0.3,2.5c0,0.3,0.1,0.5,0.1,0.8c0.1,0.9,0.2,1.7,0.3,2.6c0,0.2,0,0.5,0.1,0.7
	c0.1,0.9,0.2,1.8,0.3,2.6c0,0.2,0,0.5,0.1,0.7c0.1,0.9,0.2,1.8,0.2,2.7c0,0.2,0,0.5,0.1,0.7c0.1,0.9,0.1,1.8,0.2,2.8
	c0,0.2,0,0.4,0,0.7c0.1,0.9,0.1,1.9,0.2,2.8c0,0.2,0,0.4,0,0.7c0.1,1,0.1,1.9,0.2,2.9c0,0.2,0,0.4,0,0.6c0,1,0.1,1.9,0.1,2.9
	c0,0.2,0,0.4,0,0.6c0,1,0.1,2,0.1,3c0,0.2,0,0.4,0,0.6c0,1,0.1,2,0.1,3c0,0.2,0,0.4,0,0.5c0,1,0,2.1,0,3.1c0,0.2,0,0.3,0,0.5
	c0,1,0,2.1,0,3.2c0,0.2,0,0.3,0,0.5c0,1.1,0,2.1,0,3.2c0,0.1,0,0.3,0,0.4c0,1.1,0,2.2-0.1,3.3c0,0.1,0,0.3,0,0.4
	c0,1.1-0.1,2.2-0.1,3.3c0,0.1,0,0.2,0,0.3c0,1.1-0.1,2.3-0.2,3.4c0,0.1,0,0.2,0,0.3c-0.1,1.2-0.1,2.3-0.2,3.5c0,0.1,0,0.2,0,0.2
	c-0.1,1.2-0.2,2.4-0.3,3.5c0,0.1,0,0.1,0,0.2c-0.1,1.2-0.2,2.4-0.3,3.6c0,0,0,0.1,0,0.1c-1.1,11.3-2.9,22.8-5.6,34.3
	c-8.1-22.2-26-48.6-47.2-73C707.5,140.7,723.3,116.6,734.5,80.3z"/>
<linearGradient id="SVGID_9_" gradientUnits="userSpaceOnUse" x1="-2180.0571" y1="-255.8438" x2="-1958.4336" y2="-255.8438" gradientTransform="matrix(-0.7456 -0.6664 -0.6664 0.7456 -1158.5233 -958.2381)">
	<stop  offset="3.597120e-003" style="stop-color:#EBEFF2"/>
	<stop  offset="1" style="stop-color:#FFFFFF"/>
</linearGradient>
<path fill="url(#SVGID_9_)" d="M472.2,156.1c-36.7,41.1-29.5,107.5,16.1,148.3c45.6,40.8,112.4,40.5,149.1-0.6
	c36.7-41.1,29.5-107.5-16.1-148.3S508.9,115,472.2,156.1z"/>
<linearGradient id="SVGID_10_" gradientUnits="userSpaceOnUse" x1="-2180.0571" y1="-252.2114" x2="-1958.4308" y2="-252.2114" gradientTransform="matrix(-0.7456 -0.6664 -0.6664 0.7456 -1158.5233 -958.2381)">
	<stop  offset="3.597120e-003" style="stop-color:#EBEFF2"/>
	<stop  offset="1" style="stop-color:#FFFFFF"/>
</linearGradient>
<path fill="url(#SVGID_10_)" d="M515.7,240.2c46.7-41.5,88.2-32.4,131.7-51.5c20.4,38.1,17.9,83.9-10,115.1
	c-36.7,41.1-103.5,41.3-149.1,0.6c-3.7-3.3-7.2-6.8-10.4-10.5C485.3,276.1,495.3,258.4,515.7,240.2z"/>
<linearGradient id="SVGID_11_" gradientUnits="userSpaceOnUse" x1="-2034.8027" y1="-326.6748" x2="-2089.2732" y2="-214.6505" gradientTransform="matrix(-0.7456 -0.6664 -0.6664 0.7456 -1158.5233 -958.2381)">
	<stop  offset="3.597120e-003" style="stop-color:#EBEFF2"/>
	<stop  offset="1" style="stop-color:#FFFFFF"/>
</linearGradient>
<path fill="url(#SVGID_11_)" d="M479.1,162.3c-33.7,37.7-27.1,98.5,14.8,135.9c41.8,37.4,103,37.2,136.7-0.5
	c33.7-37.7,27.1-98.5-14.8-135.9C573.9,124.4,512.7,124.6,479.1,162.3z"/>
<linearGradient id="SVGID_12_" gradientUnits="userSpaceOnUse" x1="-2165.772" y1="-114.9805" x2="-2000.7603" y2="-355.7828" gradientTransform="matrix(-0.7456 -0.6664 -0.6664 0.7456 -1158.5233 -958.2381)">
	<stop  offset="0" style="stop-color:#444B8C"/>
	<stop  offset="0.9964" style="stop-color:#26264F"/>
</linearGradient>
<path fill="url(#SVGID_12_)" d="M488.8,171c-29.3,32.8-23.6,85.8,12.9,118.4c36.4,32.6,89.7,32.4,119.1-0.4
	c29.3-32.8,23.6-85.8-12.9-118.4S518.2,138.2,488.8,171z"/>
<linearGradient id="SVGID_13_" gradientUnits="userSpaceOnUse" x1="-2075.2256" y1="94.5205" x2="-2068.3735" y2="5.1008" gradientTransform="matrix(-0.7456 -0.6664 -0.6664 0.7456 -1158.5233 -958.2381)">
	<stop  offset="0" style="stop-color:#FFC444"/>
	<stop  offset="0.9964" style="stop-color:#F36F56"/>
</linearGradient>
<path fill="url(#SVGID_13_)" d="M307.6,367.7c-10,11.2,12.6,47.8,50.6,81.7c37.9,33.9,76.8,52.3,86.9,41.1
	c10-11.2-12.6-47.8-50.6-81.7S317.6,356.5,307.6,367.7z"/>
<linearGradient id="SVGID_14_" gradientUnits="userSpaceOnUse" x1="-2145.1914" y1="30.8252" x2="-1993.2861" y2="30.8252" gradientTransform="matrix(-0.7456 -0.6664 -0.6664 0.7456 -1158.5233 -958.2381)">
	<stop  offset="0" style="stop-color:#AA80F9"/>
	<stop  offset="0.9964" style="stop-color:#6165D7"/>
</linearGradient>
<path fill="url(#SVGID_14_)" d="M370.7,406.3l29.5,26.4c15.7,14,21.3,36.2,14.2,56l-6.7,18.8c-2.5,6.9-11.2,9.1-16.7,4.2l-97.8-87.4
	c-5.5-4.9-4.3-13.8,2.3-17l17.9-8.8C332.4,389.1,355,392.2,370.7,406.3z"/>
<linearGradient id="SVGID_15_" gradientUnits="userSpaceOnUse" x1="-2059.1411" y1="27.7617" x2="-2096.4854" y2="140.1372" gradientTransform="matrix(-0.7456 -0.6664 -0.6664 0.7456 -1158.5233 -958.2381)">
	<stop  offset="0" style="stop-color:#AA80F9"/>
	<stop  offset="0.9964" style="stop-color:#6165D7"/>
</linearGradient>
<path fill="url(#SVGID_15_)" d="M288.9,413.3c-9.5,10.6,8.3,41.9,39.6,69.8s64.4,42.1,73.8,31.5s-8.3-41.9-39.6-69.8
	C331.4,416.8,298.3,402.7,288.9,413.3z"/>
<linearGradient id="SVGID_16_" gradientUnits="userSpaceOnUse" x1="-2061.5591" y1="35.0366" x2="-2089.9407" y2="120.4419" gradientTransform="matrix(-0.7456 -0.6664 -0.6664 0.7456 -1158.5233 -958.2381)">
	<stop  offset="0" style="stop-color:#444B8C"/>
	<stop  offset="0.9964" style="stop-color:#26264F"/>
</linearGradient>
<path fill="url(#SVGID_16_)" d="M302.5,425.5c-7.2,8,6.3,31.8,30.1,53.1c23.8,21.3,48.9,32,56.1,24c7.2-8-6.3-31.8-30.1-53.1
	C334.8,428.2,309.7,417.4,302.5,425.5z"/>
<linearGradient id="SVGID_17_" gradientUnits="userSpaceOnUse" x1="-2176.0308" y1="-122.0127" x2="-2011.0216" y2="-362.8113" gradientTransform="matrix(-0.7456 -0.6664 -0.6664 0.7456 -1158.5233 -958.2381)">
	<stop  offset="0" style="stop-color:#444B8C"/>
	<stop  offset="0.9964" style="stop-color:#26264F"/>
</linearGradient>
<path fill="url(#SVGID_17_)" d="M515.7,240.2c39.7-35.3,75.7-34,112.3-44.6c17.1,30.7,15.4,68-7.3,93.3
	c-29.3,32.8-82.6,33-119.1,0.4c-5.3-4.8-10-10-14-15.5C494.2,262.8,502.9,251.6,515.7,240.2z"/>
<linearGradient id="SVGID_18_" gradientUnits="userSpaceOnUse" x1="-1092.3936" y1="694.1982" x2="-643.2405" y2="221.4783" gradientTransform="matrix(0.5933 3.320000e-002 -3.870000e-002 0.6933 714.2909 284.2118)">
	<stop  offset="0" style="stop-color:#FFC444"/>
	<stop  offset="0.9964" style="stop-color:#F36F56"/>
</linearGradient>
<path fill="url(#SVGID_18_)" d="M128.5,613.6c0,0,94.9-48.7,164.3-133c0.8-1,10.1-11.6,20.5-25.2c6-7.8,7.7-10.6,8.2-10.2
	c4.6,4.1-113.6,276-231.8,269.4c-41.3-2.3-82.4-29-81.2-47.8C9.8,647.8,53.9,651.8,128.5,613.6z"/>
<linearGradient id="SVGID_19_" gradientUnits="userSpaceOnUse" x1="69.8291" y1="739.1865" x2="-122.1323" y2="1038.0135" gradientTransform="matrix(0.9929 0.1192 -0.1192 0.9929 266.5608 -314.8007)">
	<stop  offset="0" style="stop-color:#FFC444"/>
	<stop  offset="0.9964" style="stop-color:#F36F56"/>
</linearGradient>
<path fill="url(#SVGID_19_)" d="M317.4,449.2c5.3,9.8-48.8,51.5-97.2,79c-8.4,4.8-30.8,17.2-62.3,29.4c-51.9,20.1-82.8,34-95.3,21.4
	c-8.1-8.2-6.6-25.6-0.5-36.9c12.4-23.2,39.1-12.9,66.3-37.9c22-20.2,15-36.5,34.5-46.7c18.7-9.7,31.9,1.7,66.3,4
	C282.6,465.1,313.4,441.8,317.4,449.2z"/>
<linearGradient id="SVGID_20_" gradientUnits="userSpaceOnUse" x1="206.4385" y1="823.4326" x2="14.4714" y2="1122.2684" gradientTransform="matrix(0.9929 0.1192 -0.1192 0.9929 266.5608 -314.8007)">
	<stop  offset="0" style="stop-color:#FFC444"/>
	<stop  offset="0.9964" style="stop-color:#F36F56"/>
</linearGradient>
<path fill="url(#SVGID_20_)" d="M351.7,474.1c-38.2,29.1-55,57.9-63.3,79.1c-9.9,25.1-7.2,38-23,59c-15.7,20.7-31.1,25.1-38.6,47.2
	c-1.7,4.9-9,26.6,0.5,36.9c16.1,17.6,77.3-0.5,112.4-39.3c6.9-7.6,33.5-37.2,28.4-70.3c-2.5-16.2-10.6-20.5-17.2-38.9
	C344,528.6,342.5,504.6,351.7,474.1z"/>
<linearGradient id="SVGID_21_" gradientUnits="userSpaceOnUse" x1="-5165.5815" y1="473.4678" x2="-5162.2856" y2="492.6853" gradientTransform="matrix(1 0 0 1 5832.4766 0)">
	<stop  offset="0" style="stop-color:#FFC444"/>
	<stop  offset="0.9964" style="stop-color:#F36F56"/>
</linearGradient>
<path fill="url(#SVGID_21_)" d="M661.1,481.1c1.1-0.9,2.6-2.3,3.4-4.5c0.9-2.3,0.3-3.3,1.4-4.8c1.4-1.8,4.3-2.6,6.3-1.7
	c0.4,0.2,0.9,0.4,1.3,1c0.9,1.5-1.1,4.1-2.7,5.5c-1.2,1-1.7,1-2.9,1.9c-1.2,0.9-2.8,2.4-4,5.1L661.1,481.1z"/>
<linearGradient id="SVGID_22_" gradientUnits="userSpaceOnUse" x1="3315.2998" y1="-1270.9771" x2="3318.5959" y2="-1251.7581" gradientTransform="matrix(-0.9207 0.3902 0.3902 0.9207 4267.1343 340.2826)">
	<stop  offset="0" style="stop-color:#FFC444"/>
	<stop  offset="0.9964" style="stop-color:#F36F56"/>
</linearGradient>
<path fill="url(#SVGID_22_)" d="M727.1,468.5c-1.4-0.4-3.3-1.1-4.9-2.8c-1.7-1.8-1.5-3-3.1-3.8c-2-1.1-5-0.7-6.5,0.9
	c-0.3,0.3-0.7,0.8-0.8,1.4c-0.2,1.7,2.6,3.4,4.6,4c1.5,0.5,1.9,0.2,3.4,0.6c1.5,0.3,3.5,1.1,5.7,3.1L727.1,468.5z"/>
<linearGradient id="SVGID_23_" gradientUnits="userSpaceOnUse" x1="3137.2764" y1="-683.4404" x2="3163.1638" y2="-532.4975" gradientTransform="matrix(-0.9612 0.2758 0.2758 0.9612 3932.1829 281.7646)">
	<stop  offset="0" style="stop-color:#FF9085"/>
	<stop  offset="1" style="stop-color:#FB6FBB"/>
</linearGradient>
<path fill="url(#SVGID_23_)" d="M720.8,470.6c-0.9,4.2,3.6,7.9,6.9,11.5c6.5,7.3,13.4,20.4,10.9,31.6c-1.4,6.1-5.8,12.7-12,15.9
	c-6.7,3.4-10.7,0.3-17.6,4.3c-0.5,0.3-9.3,5.5-9.6,12.5c-0.3,8.7,12.4,17.9,23.3,18.6c20,1.3,44-25.3,42.9-51.6
	c-1.2-28.7-32-51.4-40.9-47.6C723.4,466.5,721.3,468.3,720.8,470.6z"/>
<linearGradient id="SVGID_24_" gradientUnits="userSpaceOnUse" x1="2021.8994" y1="672.9199" x2="2021.8994" y2="601.9493" gradientTransform="matrix(-0.9994 3.520000e-002 3.520000e-002 0.9994 2711.4854 40.0443)">
	<stop  offset="0" style="stop-color:#FFC444"/>
	<stop  offset="0.9964" style="stop-color:#F36F56"/>
</linearGradient>
<polygon fill="url(#SVGID_24_)" points="711.9,767.5 711.2,774.8 714.6,774.2 716.9,767.4 "/>
<linearGradient id="SVGID_25_" gradientUnits="userSpaceOnUse" x1="2015.2734" y1="536.5635" x2="2009.4973" y2="666.5276" gradientTransform="matrix(-0.9994 3.520000e-002 3.520000e-002 0.9994 2711.4854 40.0443)">
	<stop  offset="0" style="stop-color:#311944"/>
	<stop  offset="1" style="stop-color:#893976"/>
</linearGradient>
<path fill="url(#SVGID_25_)" d="M732.5,633.3c-0.4,12.9-2,23.9-3.9,32.9c-2.1,9.7-3.2,11.4-3.9,18.1c-1.4,14.6,3.3,16.7,4.2,33.2
	c1,18.2-3.9,32.7-5.8,38.2c-1.7,4.8-3.4,8.7-4.7,11.4c-1.7,1.5-4.2,0.9-6.9,0.3c-1-16.5-2.2-32.1-3.2-48.6
	c-3.2-24.8-6.4-49.7-9.6-74.5C710,640.7,721.3,637,732.5,633.3z"/>
<linearGradient id="SVGID_26_" gradientUnits="userSpaceOnUse" x1="2015.2734" y1="536.5635" x2="2009.4973" y2="666.5272" gradientTransform="matrix(-0.9994 3.520000e-002 3.520000e-002 0.9994 2711.4854 40.0443)">
	<stop  offset="0" style="stop-color:#311944"/>
	<stop  offset="1" style="stop-color:#893976"/>
</linearGradient>
<path opacity="0.3" fill="url(#SVGID_26_)" d="M711.5,767.5c-1-16.5-2.2-32.1-3.2-48.6c-3.2-24.8-6.4-49.7-9.6-74.5
	c11.3-3.7,22.5-7.4,33.8-11.1c0,0.9-0.1,1.7-0.1,2.5c-15.8,13.7-18.9,24.6-18.8,32c0.2,9,5.1,13.5,4.1,26.5
	c-0.7,9.3-3.5,11-3.5,19.4c0,10.8,4.7,16.9,6.9,23.2c2.2,6.1,3,14.6-1.3,26.8c-0.6,1.3-1.1,2.4-1.5,3.4
	C716.8,768.6,714.2,768,711.5,767.5z"/>
<linearGradient id="SVGID_27_" gradientUnits="userSpaceOnUse" x1="2027.7676" y1="673.2852" x2="2015.8934" y2="634.1324" gradientTransform="matrix(-0.9994 3.520000e-002 3.520000e-002 0.9994 2711.4854 40.0443)">
	<stop  offset="0" style="stop-color:#FF9085"/>
	<stop  offset="1" style="stop-color:#FB6FBB"/>
</linearGradient>
<path fill="url(#SVGID_27_)" d="M713.2,777.3c1.6-2,3.1-1.8,3.3-3.2c0.2-1.1-0.5-2.3-1.4-2.8c-1.4-0.7-3,0.5-3.4,0.7
	c-2.5,1.7-1.8,4.3-4.1,5.4c-0.5,0.2-1.2,0.5-2,1.3c-0.3,0.3-1.2,1.1-1,1.7c0.2,0.6,1.8,0.6,3.2,0.5c1.7-0.1,2.6-0.1,3.4-0.6
	C712.3,779.5,712,778.8,713.2,777.3z"/>
<linearGradient id="SVGID_28_" gradientUnits="userSpaceOnUse" x1="2735.3613" y1="-3170.3979" x2="2735.3613" y2="-3233.3164" gradientTransform="matrix(-0.6521 0.7581 0.7581 0.6521 4909.7891 716.1328)">
	<stop  offset="0" style="stop-color:#FFC444"/>
	<stop  offset="0.9964" style="stop-color:#F36F56"/>
</linearGradient>
<polygon fill="url(#SVGID_28_)" points="709.8,715.1 716.1,717.6 718,714.7 713,711.4 "/>
<linearGradient id="SVGID_29_" gradientUnits="userSpaceOnUse" x1="2739.7354" y1="-3168.0234" x2="2727.8616" y2="-3207.1746" gradientTransform="matrix(-0.6521 0.7581 0.7581 0.6521 4909.7891 716.1328)">
	<stop  offset="0" style="stop-color:#FF9085"/>
	<stop  offset="1" style="stop-color:#FB6FBB"/>
</linearGradient>
<path fill="url(#SVGID_29_)" d="M719.5,719.1c-0.4-2.5,0.7-3.5-0.1-4.6c-0.6-0.9-2-1.2-3-0.8c-1.4,0.6-1.7,2.5-1.8,3
	c-0.4,3,1.9,4.2,1.2,6.7c-0.2,0.5-0.5,1.2-0.4,2.3c0,0.5,0,1.6,0.6,1.8c0.6,0.2,1.6-0.9,2.5-2c1.1-1.3,1.7-2,1.8-2.9
	C720.5,721.3,719.7,721.1,719.5,719.1z"/>
<linearGradient id="SVGID_30_" gradientUnits="userSpaceOnUse" x1="-5067.8384" y1="672.9922" x2="-5188.9761" y2="667.4858" gradientTransform="matrix(1 0 0 1 5832.4766 0)">
	<stop  offset="0" style="stop-color:#311944"/>
	<stop  offset="1" style="stop-color:#893976"/>
</linearGradient>
<path fill="url(#SVGID_30_)" d="M682.4,621.8c-11.8,24-15.8,44.1-17.3,57.2c-1,8.4-0.9,13.6,1.5,18.8c8.7,18.7,39,20,43.6,20.1
	c1.5-3.1,3-6.2,4.5-9.3c-2.8-5.2-7.6-12.3-16-17.6c-6.4-4-8.9-3.2-10.5-5.9c-6.4-10.9,28.2-34.4,23-50
	C709.5,629.7,702.6,624.3,682.4,621.8z"/>
<linearGradient id="SVGID_31_" gradientUnits="userSpaceOnUse" x1="-5115.9707" y1="482.6035" x2="-5085.8467" y2="658.2487" gradientTransform="matrix(1 0 0 1 5832.4766 0)">
	<stop  offset="0" style="stop-color:#FF9085"/>
	<stop  offset="1" style="stop-color:#FB6FBB"/>
</linearGradient>
<path fill="url(#SVGID_31_)" d="M708,535.4c-12.7,2.2-22.4,4.5-26.8,11.1c-4.6,7,2.7,12.3,4.7,27.8c3,23.7-10.6,32.5-6.7,56.3
	c0.6,3.9,1.6,7.4,2.7,10.3c1.8,5.2,5.4,9.6,10.1,12.5c3.5,2.2,7.8,4.4,12.7,6.2c12.9,4.5,19.3,1.9,36.7,2.9
	c28.4,1.6,32.7,9.9,45.5,4.8c13-5.1,22.4-19,19.6-24.9c-1.6-3.5-6.8-1.3-14.3-5.7c-9.6-5.6-8-13.3-15.8-19.8
	c-11.2-9.4-22,0.1-31.6-8.1c-9.7-8.3-10.8-28.5-6.7-40.5c2.7-7.8,2.7-16.4,4.7-24.4c0.2-0.7,0.3-1.7-0.1-2.9
	c-1.6-4.6-10-5.5-16.4-6.1C716.5,534,709,535.3,708,535.4z"/>
<linearGradient id="SVGID_32_" gradientUnits="userSpaceOnUse" x1="-2186.0288" y1="65.9146" x2="-2127.3752" y2="186.5264" gradientTransform="matrix(0.9781 -0.2085 0.2085 0.9781 2793.418 31.7107)">
	<stop  offset="0" style="stop-color:#FF9085"/>
	<stop  offset="1" style="stop-color:#FB6FBB"/>
</linearGradient>
<path opacity="0.3" fill="url(#SVGID_32_)" d="M785.4,658.4c-3.9-2.6-1.8-10.1-7.6-14c-5.4-3.7-9.6,1.1-17.6-1.3
	c-10.2-3.1-9.7-13-19.5-16.1c-7-2.3-9.2,2.2-19.3,2.4c-10.1,0.2-23.4-4-31.9-14.7c-3.6-4.6-5.6-9.4-6.7-14c-2.7,8.8-5.7,17.2-3.6,30
	c0.9,5.2,2.3,9.6,3.7,13.1c1.3,3.2,3.6,6,6.4,8c3.9,2.7,9,5.7,15.3,7.9c12.9,4.5,19.3,1.9,36.7,2.9c28.4,1.6,32.7,9.9,45.5,4.8
	c8.3-3.3,15.1-10.1,18.2-16.2C793.8,659.4,788.2,660.3,785.4,658.4z"/>
<linearGradient id="SVGID_33_" gradientUnits="userSpaceOnUse" x1="2029.3525" y1="411.4497" x2="2015.8066" y2="433.3621" gradientTransform="matrix(-0.9994 3.520000e-002 3.520000e-002 0.9994 2711.4854 40.0443)">
	<stop  offset="0" style="stop-color:#FFC444"/>
	<stop  offset="0.9964" style="stop-color:#F36F56"/>
</linearGradient>
<path fill="url(#SVGID_33_)" d="M700.6,513.4c0,0-3.5,6.6-3.7,11.2c-0.2,4.6,5,4.3,5,4.3l-0.2,2.9c-0.2,2.5-1.8,4.6-4.1,5.5
	l-2.1,0.8c0,0,13.4,2.9,20.8-2.3l-2.1-0.2c-3-0.3-5.4-2.7-5.7-5.6l-0.1-1.2C708.3,528.7,710.7,514.3,700.6,513.4z"/>
<linearGradient id="SVGID_34_" gradientUnits="userSpaceOnUse" x1="-5166.6436" y1="503.1523" x2="-5140.7563" y2="654.0953" gradientTransform="matrix(1 0 0 1 5832.4766 0)">
	<stop  offset="0" style="stop-color:#FF9085"/>
	<stop  offset="1" style="stop-color:#FB6FBB"/>
</linearGradient>
<path fill="url(#SVGID_34_)" d="M667.5,482.4c2,3.8-1.3,8.6-3.4,13c-4.3,8.8-7.2,23.3-1.7,33.3c3,5.5,9.1,10.6,15.9,12
	c7.3,1.4,10.3-2.7,18.1-0.7c0.6,0.1,10.5,2.7,12.6,9.4c2.7,8.2-7,20.6-17.3,24.3c-18.8,6.7-49.3-12.1-55.5-37.8
	c-6.7-27.9,16.6-58.3,26.2-57C663.9,479.1,666.4,480.3,667.5,482.4z"/>
<linearGradient id="SVGID_35_" gradientUnits="userSpaceOnUse" x1="1954.1211" y1="503.2285" x2="2008.8838" y2="386.2142" gradientTransform="matrix(-0.9994 3.520000e-002 3.520000e-002 0.9994 2711.4854 40.0443)">
	<stop  offset="0" style="stop-color:#444B8C"/>
	<stop  offset="0.9964" style="stop-color:#26264F"/>
</linearGradient>
<path fill="url(#SVGID_35_)" d="M702.7,520c0.7-0.1,1.3-0.9,1.7-0.7c0.5,0.3,0.4,1.6,0,2.5c-0.4,0.7-0.9,1.2-1.3,1.4
	c0.5,0.7,1.2,1.9,1.5,3.4c0.6,3.3-1.1,6-1.9,7.6c-3.3,7.1,1.8,18.3,7.5,23.9c4.6,4.6,6.8,2.8,9.5,6.5c5.4,7.3-2,15.3,0.7,25.2
	c4.2,15,27.8,19.4,28.8,19.6c0.4,0.1,0.6,0.1,1,0.2c10.6,1.7,26.7,4.2,38-4.5c8.5-6.5,12.3-17.8,11.7-27.8c-0.2-2.6-1-12.6-9.1-20.7
	c-1.3-1.3-8.9-8.9-19.2-9c-5.5,0-6.6,1.9-10.7,0.7c-5.7-1.6-9.2-6.8-11.4-10.1c-4-5.9-2.4-7.2-5.3-10.1c-5.7-5.7-12.3-1.2-18.4-6.3
	c-6-5-2.4-11.7-8.1-16c-5.9-4.4-17.3-2.9-19.7,2.4C696.1,512.7,700.6,520.1,702.7,520z"/>
<linearGradient id="SVGID_36_" gradientUnits="userSpaceOnUse" x1="180.1724" y1="454.0918" x2="193.9144" y2="485.7203" gradientTransform="matrix(1 0 0 1 341.2505 0)">
	<stop  offset="0" style="stop-color:#FFC444"/>
	<stop  offset="0.9964" style="stop-color:#F36F56"/>
</linearGradient>
<path fill="url(#SVGID_36_)" d="M532.4,476.1c0,0-2.7-14.1-5.4-18.2s-7.7-6.9-7.7-6.9s-1,1.7,2.3,5.3c3.3,3.6,0.6,4,0,5.1
	s0.6,5.4,3,6.8c2.4,1.5,3.3,9.6,3.3,9.6L532.4,476.1z"/>
<linearGradient id="SVGID_37_" gradientUnits="userSpaceOnUse" x1="215.3174" y1="476.8145" x2="271.0655" y2="605.1236" gradientTransform="matrix(1 0 0 1 341.2505 0)">
	<stop  offset="3.597120e-003" style="stop-color:#E38DDD"/>
	<stop  offset="1" style="stop-color:#9571F6"/>
</linearGradient>
<path fill="url(#SVGID_37_)" d="M524.6,474.3c2.9-0.5,5.8-1,8.7-1.5c10.3,19.2,22.5,31.5,30.7,38.7c9.8,8.5,16,13.9,26.4,16.7
	c15.3,4,28.5-0.7,30.2,3.6c0.8,2.1-2.1,4.4-6.7,9.9c-13.6,16.2-12.3,24.9-19.7,27.4c-6.2,2-12.4-2.3-22.9-9.8
	c-9.6-6.8-21.6-15.4-31.7-31.7C526,505.6,524.6,484.1,524.6,474.3z"/>
<linearGradient id="SVGID_38_" gradientUnits="userSpaceOnUse" x1="2908.0049" y1="607.167" x2="2926.52" y2="533.106" gradientTransform="matrix(1 0 0 1 -2267.8291 0)">
	<stop  offset="3.597120e-003" style="stop-color:#E38DDD"/>
	<stop  offset="1" style="stop-color:#9571F6"/>
</linearGradient>
<path fill="url(#SVGID_38_)" d="M652,533.4c1.4,0.5,22.8,9.1,27.2,31.4c0.4,1.8,3.8,21-9.2,34.6c-14.6,15.2-42.8,14.8-53.9,2.1
	c-2.6-3-4-6.3-4.7-9l0,0l2.9-7.8c3.6-4.3,8.5-5.4,11.1-6c6.4-1.6,11.3,1.3,15-1.8c2-1.7,2.4-4.2,2.8-6.4c1.2-7.5-3-12.2-3.3-16.8
	c-0.2-3.5-1.4-11.1,3.1-16C645.8,534.6,649.7,533.7,652,533.4z"/>
<linearGradient id="SVGID_39_" gradientUnits="userSpaceOnUse" x1="2703.7236" y1="1179.4004" x2="2712.5068" y2="1187.2131" gradientTransform="matrix(0.9902 -0.14 0.14 0.9902 -2184.4878 -10.5882)">
	<stop  offset="0" style="stop-color:#444B8C"/>
	<stop  offset="0.9964" style="stop-color:#26264F"/>
</linearGradient>
<path fill="url(#SVGID_39_)" d="M660.3,782.7c0.3-1.4,4.7-2.6,6.9-0.8c1.1,0.9,1.8,2.8,1.2,3.6c-0.2,0.3,0.7,0.8-0.2,0.9
	C665.3,786.4,660.1,784.1,660.3,782.7z"/>
<linearGradient id="SVGID_40_" gradientUnits="userSpaceOnUse" x1="1786.918" y1="1187.207" x2="1786.918" y2="1171.9055" gradientTransform="matrix(0.9902 -0.14 0.14 0.9902 -1268.2867 -140.1044)">
	<stop  offset="0" style="stop-color:#FFC444"/>
	<stop  offset="0.9964" style="stop-color:#F36F56"/>
</linearGradient>
<path fill="url(#SVGID_40_)" d="M665,783.2l4.6-0.6c-2.1-2.6-1.7-10.7-1.7-10.7L663,773c0,0,0.6,2.2,1.5,5.5
	C664.8,779.6,664.9,781.4,665,783.2z"/>
<linearGradient id="SVGID_41_" gradientUnits="userSpaceOnUse" x1="2704.6064" y1="1178.4072" x2="2713.3896" y2="1186.22" gradientTransform="matrix(0.9902 -0.14 0.14 0.9902 -2184.4878 -10.5882)">
	<stop  offset="0" style="stop-color:#444B8C"/>
	<stop  offset="0.9964" style="stop-color:#26264F"/>
</linearGradient>
<path fill="url(#SVGID_41_)" d="M664.6,782.6c0,0,5.5-1.3,6.1-0.2c0.6,1.1,1.1,4-2.4,3.9C664.8,786.3,664.3,783.6,664.6,782.6z"/>
<linearGradient id="SVGID_42_" gradientUnits="userSpaceOnUse" x1="2863.5156" y1="783.5869" x2="2872.2998" y2="791.4005" gradientTransform="matrix(1 0 0 1 -2267.8291 0)">
	<stop  offset="0" style="stop-color:#444B8C"/>
	<stop  offset="0.9964" style="stop-color:#26264F"/>
</linearGradient>
<path fill="url(#SVGID_42_)" d="M597.6,787.9c0.4-1.3,5-1.9,6.9,0.2c1,1.1,1.4,3,0.7,3.7c-0.3,0.3,0.6,0.9-0.3,0.8
	C601.9,792.2,597.1,789.2,597.6,787.9z"/>
<linearGradient id="SVGID_43_" gradientUnits="userSpaceOnUse" x1="1946.667" y1="791.417" x2="1946.667" y2="776.114" gradientTransform="matrix(1 0 0 1 -1342.5186 0)">
	<stop  offset="0" style="stop-color:#FFC444"/>
	<stop  offset="0.9964" style="stop-color:#F36F56"/>
</linearGradient>
<path fill="url(#SVGID_43_)" d="M602.1,789h4.6c-1.7-2.8-0.2-10.8-0.2-10.8l-5,0.4c0,0,0.2,2.3,0.7,5.7
	C602.4,785.4,602.3,787.2,602.1,789z"/>
<linearGradient id="SVGID_44_" gradientUnits="userSpaceOnUse" x1="-3502.6035" y1="798.4336" x2="-3559.8777" y2="567.1895" gradientTransform="matrix(-1 0 0 1 -2899.1758 0)">
	<stop  offset="0" style="stop-color:#444B8C"/>
	<stop  offset="0.9964" style="stop-color:#26264F"/>
</linearGradient>
<path fill="url(#SVGID_44_)" d="M590.2,614.4c-2.1,7.1-5.2,18.5-7.2,32.8c-5.6,40.8,6.3,42.1,4.1,87.3
	c-0.7,14.4,12.5,47.7,13.7,48.5c0.6,0.1,1.2,0.1,1.8,0.1c1.1,0,2.8-0.2,4.7-0.8c2.1-0.4,9.6-20.8,7.9-33c-1.2-8.6-0.9-17.8-0.2-36.3
	c0.1-3,7.8-58.2,7.8-58.2l0,0c2.3,20.4,5,37.8,7.3,51.3c7.5,43.3,31.7,69.4,33,69.9c0.3,0.1,2.5,0.9,4.4-0.3
	c0.8-0.5,1.1-1.3,1.1-1.3c0.6-0.5-0.2-43.2-7.6-75.3c-10.7-46.6-6.1-57.5-9.5-78.4C648.5,602.6,590.2,614.4,590.2,614.4z"/>
<linearGradient id="SVGID_45_" gradientUnits="userSpaceOnUse" x1="231.3584" y1="463.4063" x2="292.766" y2="604.7414" gradientTransform="matrix(1 0 0 1 341.2505 0)">
	<stop  offset="3.597120e-003" style="stop-color:#E38DDD"/>
	<stop  offset="1" style="stop-color:#9571F6"/>
</linearGradient>
<path fill="url(#SVGID_45_)" d="M633.5,529.8c-7.1-0.2-23.5-2.7-32.5,5.4c-0.2,0.1,1.7,1.1,0.8,2.2c-0.8,1-3.7,4.5-6.4,9.1
	c-1.9,3.4-3.6,7.3-5.4,13.2c-3.1,10.4-3.9,19.3-4.2,23.1c-1.6,21.7,0,31.7,1.5,38.5c6.4,3.3,23.1,9.2,42.8,6.3
	c9-1.3,16.3-4.4,21.4-7c-5.1-15.5-1.1-23.9,0.8-31.5c2.7-10.9,2.8-10.1,5-18.8c3.7-14.3,4.3-29,1.8-32
	C652.2,530.3,639.9,530,633.5,529.8z"/>
<linearGradient id="SVGID_46_" gradientUnits="userSpaceOnUse" x1="2864.4004" y1="782.5957" x2="2873.1836" y2="790.4084" gradientTransform="matrix(1 0 0 1 -2267.8291 0)">
	<stop  offset="0" style="stop-color:#444B8C"/>
	<stop  offset="0.9964" style="stop-color:#26264F"/>
</linearGradient>
<path fill="url(#SVGID_46_)" d="M601.8,788.4c0,0,5.6-0.5,6.1,0.7c0.4,1.2,0.5,4.1-3,3.5C601.5,792,601.4,789.3,601.8,788.4z"/>
<linearGradient id="SVGID_47_" gradientUnits="userSpaceOnUse" x1="3599.9512" y1="175.123" x2="3645.4468" y2="232.3624" gradientTransform="matrix(0.9663 0.2576 -0.2576 0.9663 -2820.864 -597.6533)">
	<stop  offset="0" style="stop-color:#FFC444"/>
	<stop  offset="0.9964" style="stop-color:#F36F56"/>
</linearGradient>
<path fill="url(#SVGID_47_)" d="M618.5,516.4c-1.2-4.2,0.9-8,1.3-8.9c1.9-3.5,2.4-4,3.3-4.6l1.3-0.8c0,0,0.1,0,0.1-0.1
	c0.8-0.3,3.5-0.4,4.1-0.3c1.8,0.4,3.7,7.6,3.1,17.8c0.1,0.4,0.1,0.8,0.2,1.2c0.3,1.6,0.5,3.2,0.7,4.7c0.2,1.5,1.1,2.7,2.5,3.3
	c9.4,3.6,9.4,0.7,10.4,3.8c0.5,1.7-10.2,4.4-15.5,3.8c-11.9,0.1-21.5-1.2-20.5-3c0.5-0.8,9.6-3.2,12.2-5.6c2.4-2.2,2.2-4.4,2.4-6
	C623.6,521.4,619.4,519.5,618.5,516.4z"/>
<path fill="#26264F" d="M620.7,499.3c0,3.2,1.5,6.6,2.3,7.1c0.1,0.1,0.7,0.5,1.1,1.3c0.1,0.1,0.1,0.2,0.2,0.4c0.7,2-2.5,4.3-1.9,5.2
	c0.4,0.6,2.6-0.2,2.9,0.3c0.2,0.5-1.6,1.6-1.3,2.2c0.2,0.5,1.3,0,2,0.8c0.3,0.4,0.2,0.7,0.6,1.8c0.2,0.6,0.5,1.3,0.7,1.7
	c1.1,1.9,4.2,2.5,4.8,1.8c0.2-0.2,0-0.4,0.2-1.1c0,0,0.2-0.6,0.6-1.4c0.6-1.1,2.2-1.8,3.8-3c2.9-2.1,3.7-3.9,3.9-4.5
	c0.1-0.2,0.1-0.4,0.2-0.5c0.8-2.3,0.8-5.8-0.3-7.9c-1.8-3.5-5.7-1.9-9-5.4c-3.7-4-1.5-9.6-3.5-10.2
	C625.8,487.5,620.7,493.5,620.7,499.3z"/>
<linearGradient id="SVGID_48_" gradientUnits="userSpaceOnUse" x1="3603.0313" y1="172.229" x2="3650.5908" y2="232.065" gradientTransform="matrix(0.9663 0.2576 -0.2576 0.9663 -2820.864 -597.6533)">
	<stop  offset="0" style="stop-color:#FFC444"/>
	<stop  offset="0.9964" style="stop-color:#F36F56"/>
</linearGradient>
<path fill="url(#SVGID_48_)" d="M623.6,512.5c0.8-1.1,2.1-0.1,2.1,1.3c0,1.4-1.3,2.8-2.6,2.5C621.8,516.1,622.5,514,623.6,512.5z"/>
<path fill="#9B305E" d="M649.2,610.9c-0.1,0-0.3-0.1-0.3-0.3c-0.9-7.7,0.7-13.2,2.1-18.1c0.3-1.2,0.7-2.3,0.9-3.5
	c1.5-6.2,2.2-8.6,2.9-11.2c0.5-1.6,0.9-3.4,1.7-6.2c0-0.2,0.2-0.2,0.3-0.2c0.2,0,0.2,0.2,0.2,0.3c-0.7,2.9-1.2,4.6-1.7,6.2
	c-0.7,2.5-1.4,4.9-2.9,11.1c-0.3,1.1-0.6,2.3-0.9,3.5c-1.4,4.9-3,10.4-2.1,17.9C649.5,610.7,649.4,610.9,649.2,610.9
	C649.2,610.9,649.2,610.9,649.2,610.9z"/>
<path fill="#26264F" d="M624.2,510.2l-1.8,2.3c0,0-1.9,2.9-3.1,1.3c-0.9-1.3-1.2-1.3-1.2-1.2c0,0,0,0,0,0c0,0,0.1-0.6,0.3-1.2
	c-0.5,0.7-1.1,1.8-1.5,3.3c-0.4,1.5-0.8,3,0,4.5c0,0.1,1,1.7,2.6,2.1c0,0,0.7,0.2,3.5-0.3c0,0-3.1-2.2-3.1-2.8
	c-0.1-1.4,1.9-2.2,3.4-5.2C623.8,512,624.1,510.9,624.2,510.2z"/>
<linearGradient id="SVGID_49_" gradientUnits="userSpaceOnUse" x1="120.564" y1="552.458" x2="134.8354" y2="552.458" gradientTransform="matrix(0.971 0.2391 -0.2391 0.971 322.366 -278.2089)">
	<stop  offset="0" style="stop-color:#AB316D"/>
	<stop  offset="1" style="stop-color:#792D3D"/>
</linearGradient>
<path fill="url(#SVGID_49_)" d="M311.9,281.5c0,0-4.9,1.5-3.6,3.6s9,11.2,10.7,11.6s1.7-6.8,0.2-8.1
	C317.6,287.4,313.8,281,311.9,281.5z"/>
<linearGradient id="SVGID_50_" gradientUnits="userSpaceOnUse" x1="148.5225" y1="547.0273" x2="41.7105" y2="425.0398" gradientTransform="matrix(0.971 0.2391 -0.2391 0.971 322.366 -278.2089)">
	<stop  offset="0" style="stop-color:#444B8C"/>
	<stop  offset="0.9964" style="stop-color:#26264F"/>
</linearGradient>
<path fill="url(#SVGID_50_)" d="M295.2,188.1c5.5,2.7,25.1,12.8,33.7,35.3c2.1,5.4,6.5,17.4,2.9,32.3c-4,16.4-15.1,25.8-18.8,28.7
	c-1.2,0-2.4,0-3.6,0c-3.5-4.6-4.4-8.5-4.5-11c-0.4-7.2,4.2-10.5,5.9-20.2c0.4-2.5,1.2-7.2,0.2-11.7c-2.9-12.5-18-14-38.1-31.9
	c-7.3-6.5-12.7-11.4-11.5-15.5C263.3,187,284.7,187.5,295.2,188.1z"/>
<linearGradient id="SVGID_51_" gradientUnits="userSpaceOnUse" x1="261.0552" y1="236.4609" x2="326.6216" y2="236.4609">
	<stop  offset="0" style="stop-color:#444B8C"/>
	<stop  offset="0.9964" style="stop-color:#26264F"/>
</linearGradient>
<path fill="url(#SVGID_51_)" d="M314.9,263.7c5.5-12.7,14.1-19.5,11.2-27c-2.4-6.1-9.4-5.1-17.2-14.2c-5.6-6.5-6-11.6-8.6-16.5
	c-3.2-6.3-10.4-13.2-27.3-17.5c-6,0.8-10.8,2.5-11.7,5.7c-1.2,4,4.2,9,11.5,15.5c20.2,18,35.2,19.5,38.1,31.9
	c1.1,4.5,0.3,9.2-0.2,11.7c-1.7,9.7-6.3,13-5.9,20.2c0.1,2.6,1,6.4,4.5,11c0.3,0,0.5,0,0.8,0C310.6,275.7,312.6,268.9,314.9,263.7z"
	/>
<linearGradient id="SVGID_52_" gradientUnits="userSpaceOnUse" x1="66.4321" y1="619.9531" x2="80.8218" y2="619.9531" gradientTransform="matrix(0.971 0.2391 -0.2391 0.971 322.366 -278.2089)">
	<stop  offset="0" style="stop-color:#AB316D"/>
	<stop  offset="1" style="stop-color:#792D3D"/>
</linearGradient>
<path fill="url(#SVGID_52_)" d="M244.5,331.6c-0.3-0.9-5.1,0.4-4.4,3.4c0.6,2.6,1.9,6.8,3.9,13.6c0.5,1.8,3.4,3.5,4.7,3.7
	c1.4,0.3,2.5-1.2,1.9-2.4c-0.9-1.8-3-6.5-2.8-9.4C248.1,335.2,247.7,329.7,244.5,331.6z"/>
<linearGradient id="SVGID_53_" gradientUnits="userSpaceOnUse" x1="62.4907" y1="591.1855" x2="78.0324" y2="622.7065" gradientTransform="matrix(0.971 0.2391 -0.2391 0.971 322.366 -278.2089)">
	<stop  offset="3.597000e-003" style="stop-color:#F36F56"/>
	<stop  offset="1" style="stop-color:#FFC444"/>
</linearGradient>
<path fill="url(#SVGID_53_)" d="M241.5,325.4l2.2,9.5c0,0,1.3,2.1,3.4,0.8l1.5-9.6L241.5,325.4z"/>
<linearGradient id="SVGID_54_" gradientUnits="userSpaceOnUse" x1="110.1133" y1="580.6523" x2="3.3037" y2="458.6674" gradientTransform="matrix(0.971 0.2391 -0.2391 0.971 322.366 -278.2089)">
	<stop  offset="0" style="stop-color:#444B8C"/>
	<stop  offset="0.9964" style="stop-color:#26264F"/>
</linearGradient>
<path fill="url(#SVGID_54_)" d="M287.8,192.6c-8.5,21.7-16.8,46-24.2,72.5c-6.5,23.2-11.4,45.2-15.3,65.7c-2-0.5-4-1-6-1.5
	c-3.2-3.4-8.3-9.7-10.7-18.9c-0.7-2.6-2.4-10.3,1-25.9c2.8-13.1,5.9-16,9.3-26.6c6.6-20.7,1.1-29.2,8.1-62
	c2.1-9.7,3.6-14.1,7.6-16.2C268,174.3,285.4,190.3,287.8,192.6z"/>
<linearGradient id="SVGID_55_" gradientUnits="userSpaceOnUse" x1="115.4951" y1="377.604" x2="148.474" y2="468.3691" gradientTransform="matrix(0.971 0.2391 -0.2391 0.971 322.366 -278.2089)">
	<stop  offset="3.597000e-003" style="stop-color:#F36F56"/>
	<stop  offset="1" style="stop-color:#FFC444"/>
</linearGradient>
<path fill="url(#SVGID_55_)" d="M346.1,179c0,0,1.1-0.6,4.9-1.5s6,1.5,5.8,5.9c-0.2,4.5-1.5,9.6-2.7,7.4s-3.2-8.9-6.2-7.8
	C344.8,184.1,346.1,179,346.1,179z"/>
<linearGradient id="SVGID_56_" gradientUnits="userSpaceOnUse" x1="-61.0322" y1="433.2324" x2="-68.9126" y2="382.1561" gradientTransform="matrix(0.971 0.2391 -0.2391 0.971 322.366 -278.2089)">
	<stop  offset="3.597000e-003" style="stop-color:#F36F56"/>
	<stop  offset="1" style="stop-color:#FFC444"/>
</linearGradient>
<path fill="url(#SVGID_56_)" d="M171.4,71.9c0,0-0.4-1.9-0.4-5.5c0-3.6-1.3-5.7-3.6-7.2s-5.3-0.4-7.4-2.7c-1.3-1.4-2.1,4.9,1.7,7.6
	c3.8,2.7,5.8,9.5,5.8,9.5L171.4,71.9z"/>
<linearGradient id="SVGID_57_" gradientUnits="userSpaceOnUse" x1="145.9316" y1="357.27" x2="79.3964" y2="430.8089" gradientTransform="matrix(0.971 0.2391 -0.2391 0.971 322.366 -278.2089)">
	<stop  offset="0" style="stop-color:#FFC444"/>
	<stop  offset="0.9964" style="stop-color:#F36F56"/>
</linearGradient>
<path fill="url(#SVGID_57_)" d="M277.3,110.6c1.6-0.3,5.9,1.2,14.5,7.2c16.3,11.5,18.8,24.6,30.9,39.2c5,5.9,12.9,13.7,25.6,20.7
	c0.2,2.8,0.4,5.5,0.7,8.3c-14.3,1.3-24.1-1.7-30.4-4.8c-19-9.2-23.7-26.8-43.8-30.6c-4-0.7-6.9-0.6-9.1-3.2
	C258.3,139.5,265.4,113.1,277.3,110.6z"/>
<linearGradient id="SVGID_58_" gradientUnits="userSpaceOnUse" x1="48.188" y1="339.6318" x2="-27.1064" y2="512.9841" gradientTransform="matrix(0.971 0.2391 -0.2391 0.971 322.366 -278.2089)">
	<stop  offset="0" style="stop-color:#FFC444"/>
	<stop  offset="0.9964" style="stop-color:#F36F56"/>
</linearGradient>
<path fill="url(#SVGID_58_)" d="M306.9,191.9c0.7-4.2-8.8-6-12.4-15.7c-2.6-7,0.5-11.4,1.6-21.2c1.1-9.5,1.4-21.7-5.4-32.9
	c-0.8-1.3-2-3.4-4.1-5.5c-10-10.5-24.8-7.6-45.5-9.4c-13-1.1-31.5-2.8-47.2-13.4c-10.8-7.3-17.3-17-21.1-24.1
	c-2.8,0.5-5.7,1-8.5,1.5c0.1,17.8,5.4,28.5,10.3,35c15.2,20.3,37.5,15.2,50.2,37.6c7.4,13,6.7,26.8,6.7,27.8
	c-0.2,3.6-0.6,9.8-4,16.2c-8.8,16.6-28.6,17.3-28.4,23.7c0.2,5.2,13.4,11.3,27,11.2c20.1-0.2,23.2-14,50.5-21.8
	C293,196,306.1,196.8,306.9,191.9z"/>
<linearGradient id="SVGID_59_" gradientUnits="userSpaceOnUse" x1="21.5063" y1="358.0938" x2="27.0513" y2="411.5003" gradientTransform="matrix(0.971 0.2391 -0.2391 0.971 322.366 -278.2089)">
	<stop  offset="3.597000e-003" style="stop-color:#F36F56"/>
	<stop  offset="1" style="stop-color:#FFC444"/>
</linearGradient>
<path fill="url(#SVGID_59_)" d="M250.1,100.3c0,0,1.7,4-2.1,4.9c-3.8,0.9-10.5,1.1-10.5,1.1l26.7,10.1l4.4-7c0,0-9.6-1.5-10.2-2.5
	s-3.2-5.3-3.2-5.3L250.1,100.3z"/>
<linearGradient id="SVGID_60_" gradientUnits="userSpaceOnUse" x1="-3381.2573" y1="-121.0093" x2="-3383.1482" y2="-143.7002" gradientTransform="matrix(-0.9007 -0.4344 -0.4344 0.9007 -2855.958 -1250.6847)">
	<stop  offset="0" style="stop-color:#444B8C"/>
	<stop  offset="0.9964" style="stop-color:#26264F"/>
</linearGradient>
<path fill="url(#SVGID_60_)" d="M256.3,95.5c2.9-2,3.4-1.6,4.6-2.9c2.6-2.8,2.9-8.1,1.2-9.1c-1.1-0.6-2.1,1-5.8,2.4
	c-4.6,1.7-6.1,0.3-9.3,2.2c-0.7,0.4-4.1,2.4-4.3,5.2c-0.2,3.6,5,7,8.4,6.1C252.8,99,252.8,97.9,256.3,95.5z"/>
<linearGradient id="SVGID_61_" gradientUnits="userSpaceOnUse" x1="3084.8223" y1="528.4238" x2="3102.6563" y2="547.2218" gradientTransform="matrix(0.9709 0.2393 -0.2393 0.9709 -2624.4905 -1170.7428)">
	<stop  offset="3.597000e-003" style="stop-color:#F36F56"/>
	<stop  offset="1" style="stop-color:#FFC444"/>
</linearGradient>
<path fill="url(#SVGID_61_)" d="M250,100.8c0,0,2.6,3.4,7,2.6c3.9-0.7,3.6-9.6,0.8-11.3c-0.9-0.5-2.6-0.6-4-0.1
	c-0.8,0.3-1,0.7-2.3,1.2c-1.2,0.5-1.6,0.4-1.9,0.7c-0.4,0.4-0.7,1.4,0.4,4c-0.8-0.7-1.8-0.9-2.4-0.5c-0.1,0.1-0.4,0.3-0.5,0.6
	C246.8,99.1,247.8,100.3,250,100.8z"/>
<linearGradient id="SVGID_62_" gradientUnits="userSpaceOnUse" x1="37.5063" y1="334.9902" x2="-37.7884" y2="508.3432" gradientTransform="matrix(0.971 0.2391 -0.2391 0.971 322.366 -278.2089)">
	<stop  offset="0" style="stop-color:#FFC444"/>
	<stop  offset="0.9964" style="stop-color:#F36F56"/>
</linearGradient>
<path fill="url(#SVGID_62_)" d="M257.9,191.1c0.5-6-11.8-7.9-13-16.7c-1.2-9.3,11.6-13.3,13.3-24.7c2-13.9-14.5-26.9-16.5-28.4
	c-19.9-15.3-37.9-3.7-59.9-16.6c-4.7-2.7-9.5-6.5-14.1-12c2,5.8,4.5,10.1,7,13.4c15.2,20.3,37.5,15.2,50.2,37.6
	c7.4,13,6.7,26.8,6.7,27.8c-0.2,3.6-0.6,9.8-4,16.2c-8.8,16.6-28.6,17.3-28.4,23.7c0.2,4.4,9.8,9.6,21.1,10.9
	c1.3-4.1,3.4-8.1,6.6-11.7C238.4,197.7,257.3,198.5,257.9,191.1z"/>
<linearGradient id="SVGID_63_" gradientUnits="userSpaceOnUse" x1="-719.0444" y1="1482.5605" x2="-566.8154" y2="1611.7781" gradientTransform="matrix(0.9729 -0.2315 0.2315 0.9729 350.1166 -1598.9692)">
	<stop  offset="0" style="stop-color:#FF9085"/>
	<stop  offset="1" style="stop-color:#FB6FBB"/>
</linearGradient>
<path fill="url(#SVGID_63_)" d="M158.8,44c-58-29.1-83.6,84.6-140.5,60.1c-2.5-1.1-4.9-4-5.4-6.2C8.6,79.1,4.3,60.4,0.1,41.6
	c-0.5-2.2,1.2-2.5,3.8-1C63.2,75.5,90.9-29,150.7,8.1c1.8,1.1,3.5,3.1,3.8,4.4c2.3,10.4,4.7,20.7,7,31.1
	C161.8,44.8,160.5,44.9,158.8,44z"/>
<path fill="#FFFFFF" d="M120.5,21.1c-17.8,3.7-24.6,30.2-40,37c-9.9,4-11.4-4.2-24-6.7c-7.9-1.9-16.8-2-26.2-3.6
	c-8.2,0.4-16.9-1.5-26.5-7.2c-2.6-1.5-4.3-1.2-3.8,1c4.3,18.8,8.5,37.5,12.8,56.3c0.5,2.2,3,5.2,5.4,6.2
	c56.1,24.2,81.8-85.6,137.8-61.3C140.6,23.5,128.9,19.4,120.5,21.1z"/>
<linearGradient id="SVGID_64_" gradientUnits="userSpaceOnUse" x1="-96.9897" y1="344.8828" x2="-67.3579" y2="344.8828" gradientTransform="matrix(0.971 0.2391 -0.2391 0.971 322.366 -278.2089)">
	<stop  offset="0" style="stop-color:#444B8C"/>
	<stop  offset="0.9964" style="stop-color:#26264F"/>
</linearGradient>
<path fill="url(#SVGID_64_)" d="M166.8,67c-0.7,0-1.3-0.5-1.4-1.1L152,8.8c-0.2-0.8,0.3-1.6,1.1-1.8c0.8-0.2,1.6,0.3,1.8,1.1
	l13.4,57c0.2,0.8-0.3,1.6-1.1,1.8C167.1,67,166.9,67,166.8,67z"/>
</svg>
